<?xml version="1.0" encoding="iso-8859-1"?>
<!-- Generator: Adobe Illustrator 16.0.0, SVG Export Plug-In . SVG Version: 6.00 Build 0)  -->
<!DOCTYPE svg PUBLIC "-//W3C//DTD SVG 1.1//EN" "http://www.w3.org/Graphics/SVG/1.1/DTD/svg11.dtd">
<svg version="1.1" id="Layer_1" xmlns="http://www.w3.org/2000/svg" xmlns:xlink="http://www.w3.org/1999/xlink" x="0px" y="0px"
	 width="36px" height="36px" viewBox="0 0 36 36" style="enable-background:new 0 0 36 36;" xml:space="preserve">
<g>
	<path style="fill:#010101;" d="M33.301,22.159h0.002l0.006-0.634c0.016-1.245,0.029-2.421-0.576-3.748
		c-0.588-0.979-1.201-1.553-1.742-2.06c-0.842-0.787-1.4-3.125-1.432-4.841c1.172-0.235,2.055-1.271,2.055-2.509v-0.5h-1.102v-1.5
		h-1v1.5h-1.137v-1.5h-1v1.5h-0.883v0.5c0,1.243,0.891,2.28,2.068,2.511c0.035,2.152,0.826,4.71,1.746,5.569
		c0.518,0.485,1.053,0.986,1.541,1.794c0.381,0.837,0.455,1.643,0.463,2.516c-1-1.025-2.393-1.666-3.936-1.666h-1.031
		c-0.545-2.569-2.826-4.455-5.479-4.455h-3.986c-2.652,0-4.934,1.886-5.479,4.455h-2.027c-3.033,0-5.5,2.467-5.5,5.5v2.09h1.752v-1
		H5.873v-1.09c0-2.481,2.018-4.5,4.5-4.5h2.887l0.057-0.435c0.303-2.292,2.264-4.021,4.563-4.021h3.986
		c2.299,0,4.26,1.729,4.563,4.021l0.057,0.435h1.891c2.482,0,4.5,2.019,4.5,4.5v1.09h-0.836v1h1.836v-2.09
		C33.875,23.717,33.666,22.894,33.301,22.159z M27.574,8.867h2.957c-0.209,0.616-0.793,1.061-1.479,1.061S27.783,9.483,27.574,8.867
		z"/>
	<circle style="fill:#010101;" cx="10.268" cy="25.303" r="2.773"/>
	<circle style="fill:#010101;" cx="28.16" cy="25.303" r="2.773"/>
	<polygon style="fill:#010101;" points="22.047,19.356 16.758,23.352 19.316,23.352 15.648,27.021 22.496,22.246 19.92,22.243 
		23.572,19.356 	"/>
</g>
</svg>
