<?xml version="1.0" encoding="utf-8"?>

<!-- License Agreement at http://iconmonstr.com/license/ -->

<!DOCTYPE svg PUBLIC "-//W3C//DTD SVG 1.1//EN" "http://www.w3.org/Graphics/SVG/1.1/DTD/svg11.dtd">
<svg version="1.1" xmlns="http://www.w3.org/2000/svg" xmlns:xlink="http://www.w3.org/1999/xlink" x="0px" y="0px"
	 width="512px" height="512px" viewBox="0 0 512 512" style="enable-background:new 0 0 512 512;" xml:space="preserve">
<path id="cpu-7-icon" d="M221.667,84.333h-34.333V50h34.333V84.333z M84.333,187.333H50v34.333h34.333V187.333z M84.333,101.5
	c0-9.463,7.695-17.167,17.167-17.167h68.667V50H101.5C73.051,50,50,73.06,50,101.5v68.667h34.333V101.5z M84.333,238.833H50v34.333
	h34.333V238.833z M324.666,50h-34.333v34.333h34.333V50z M273.166,50h-34.333v34.333h34.333V50z M84.333,290.334H50v34.333h34.333
	V290.334z M393.333,255.288h-39.095l-40.502,92.464l-49.488-136.144l-41.928,99.211l-35.557-71.056l-19.379,33.756h-48.717v119.814
	h274.667V255.288z M118.667,256.352h38.776l30.36-52.882l33.21,66.378l44.442-105.18l49.756,136.914l27.829-63.461h50.293V118.667
	H118.667V256.352z M290.333,462h34.333v-34.333h-34.333V462z M427.666,273.167H462v-34.333h-34.334V273.167z M84.333,410.5v-68.666
	H50V410.5c0,28.433,23.051,51.5,51.5,51.5h68.667v-34.333H101.5C92.028,427.667,84.333,419.955,84.333,410.5z M427.666,410.5
	c0,9.455-7.694,17.167-17.166,17.167h-68.667V462H410.5c28.449,0,51.5-23.067,51.5-51.5v-68.666h-34.334V410.5z M427.666,221.667
	H462v-34.333h-34.334V221.667z M427.666,324.667H462v-34.333h-34.334V324.667z M462,101.5c0-28.44-23.051-51.5-51.5-51.5h-68.667
	v34.333H410.5c9.472,0,17.166,7.703,17.166,17.167v68.667H462V101.5z M187.333,462h34.333v-34.333h-34.333V462z M238.833,462h34.333
	v-34.333h-34.333V462z"/>
</svg>
