<?xml version="1.0" encoding="utf-8"?>

<!-- License Agreement at http://iconmonstr.com/license/ -->

<!DOCTYPE svg PUBLIC "-//W3C//DTD SVG 1.1//EN" "http://www.w3.org/Graphics/SVG/1.1/DTD/svg11.dtd">
<svg version="1.1" xmlns="http://www.w3.org/2000/svg" xmlns:xlink="http://www.w3.org/1999/xlink" x="0px" y="0px"
	 width="512px" height="512px" viewBox="0 0 512 512" enable-background="new 0 0 512 512" xml:space="preserve">
<path id="chrome-5-icon" d="M256,50C142.229,50,50,142.229,50,256s92.229,206,206,206c113.77,0,206-92.229,206-206S369.77,50,256,50
	z M256,422c-91.744,0-166-74.244-166-166c0-91.743,74.244-166,166-166c91.738,0,166,74.244,166,166C422,347.739,347.755,422,256,422
	z M167.401,179.432c54.298-63.158,154.976-50.691,192.613,23.084c-26.493,0.009-67.982-0.008-90.452,0
	c-16.297,0.006-26.82-0.365-38.216,5.63c-13.396,7.048-23.503,20.112-27.032,35.457L167.401,179.432z M217.141,255.495
	c0,21.406,17.415,38.819,38.819,38.819c21.406,0,38.82-17.413,38.82-38.819c0-21.405-17.414-38.819-38.82-38.819
	C234.556,216.676,217.141,234.09,217.141,255.495z M271.025,306.308c-21.788,6.472-47.287-0.704-61.253-24.801
	c-10.661-18.392-38.829-67.438-51.633-89.739c-44.843,68.689-6.195,162.298,75.212,178.275L271.025,306.308z M292.021,216.676
	c18.148,16.87,22.102,44.186,9.809,65.365c-9.261,15.957-38.819,65.82-53.146,89.965c83.875,5.166,145.019-76.992,117.401-155.33
	H292.021z"/>
</svg>
