<?xml version="1.0" encoding="utf-8"?>

<!-- License Agreement at http://iconmonstr.com/license/ -->

<!DOCTYPE svg PUBLIC "-//W3C//DTD SVG 1.1//EN" "http://www.w3.org/Graphics/SVG/1.1/DTD/svg11.dtd">
<svg version="1.1" xmlns="http://www.w3.org/2000/svg" xmlns:xlink="http://www.w3.org/1999/xlink" x="0px" y="0px"
	 width="512px" height="512px" viewBox="0 0 512 512" style="enable-background:new 0 0 512 512;" xml:space="preserve">
<path id="drop-30-icon" d="M405.828,281.75c0-13.68,0-52.854,0-60.16c0-14.438,9.016-21.772,18.58-21.772
	c9.474,0,18.855,7.178,18.855,21.772c0,7.69,0,53.393,0,76.509c0,14.924-1.354,22.092-10.754,39.174
	C417.66,364.268,390.557,408.58,390.557,462h-93.691c0,0-10.461-32.955-14.283-55.104c-7.699-44.514,2.359-65.014,20.775-83.998
	c19.148-19.715,28.622-29.041,37.382-38.113c20.245-20.977,47.788,3.658,31.73,22.898c-8.761,10.496-30.413,33.76-35.607,40.654
	c-5.011,6.676,4.335,16.039,11.687,8.357c10.734-11.191,35.68-38.99,44.294-49.012C401.127,298.027,405.828,292.174,405.828,281.75z
	 M106.154,281.75c0-13.68,0-52.854,0-60.16c0-14.438-8.961-21.772-18.526-21.772c-9.455,0-18.892,7.178-18.892,21.772
	c0,7.69,0,53.393,0,76.509c0,14.924,1.354,22.092,10.754,39.174c14.85,26.994,41.99,64.814,41.99,124.727h93.69
	c0,0,10.461-32.955,14.283-55.104c7.7-44.514-2.358-65.014-20.775-83.998c-19.147-19.715-28.621-29.041-37.381-38.113
	c-20.245-20.977-47.788,3.658-31.73,22.898c8.76,10.496,30.413,33.76,35.607,40.654c5.011,6.676-4.334,16.039-11.687,8.357
	c-10.735-11.191-35.681-38.99-44.294-49.012C110.909,298.027,106.154,292.174,106.154,281.75z M255.991,50
	c-45.611,67.393-74.909,109.547-74.909,150.513c0,41.002,33.504,74.213,74.909,74.213s74.909-33.211,74.909-74.213
	C330.9,159.547,301.603,117.393,255.991,50z M255.735,97.934c4.39,6.794,9.62,18.618,9.62,31.09
	c0,36.595-37.455,42.594-37.455,20.318C227.9,134.053,246.518,111.485,255.735,97.934z"/>
</svg>
