<?xml version="1.0" encoding="utf-8"?>

<!-- License Agreement at http://iconmonstr.com/license/ -->

<!DOCTYPE svg PUBLIC "-//W3C//DTD SVG 1.1//EN" "http://www.w3.org/Graphics/SVG/1.1/DTD/svg11.dtd">
<svg version="1.1" xmlns="http://www.w3.org/2000/svg" xmlns:xlink="http://www.w3.org/1999/xlink" x="0px" y="0px"
	 width="512px" height="512px" viewBox="0 0 512 512" style="enable-background:new 0 0 512 512;" xml:space="preserve">
<path id="flask-15-icon" d="M174.884,70.008c0-11.05,8.957-20.008,20.008-20.008H317.44c11.051,0,20.009,8.958,20.009,20.008
	c0,11.051-8.958,20.009-20.009,20.009H194.892C183.841,90.017,174.884,81.059,174.884,70.008z M315.524,170.14v-50.277h-39.993
	l0.143,50.443c0,86.86,70.361,95.58,70.361,161.975c0,49.555-40.314,89.87-89.869,89.87c-49.554,0-89.869-40.315-89.869-89.87
	c0-67.642,70.361-73.991,70.361-161.975l-0.143-50.443h-40.04v50.277c0,71.637-70.361,71.682-70.361,161.975
	C126.114,403.849,184.266,462,256,462s129.886-58.151,129.886-129.886C385.886,243.104,315.524,240.831,315.524,170.14z
	 M287.764,277.881c20.557,53.741-0.849,97.727-54.711,115.575C310.345,407.982,345.284,325.982,287.764,277.881z"/>
</svg>
