<?xml version="1.0" encoding="utf-8"?>


<!-- The icon can be used freely in both personal and commercial projects with no attribution required, but always appreciated. 
You may NOT sub-license, resell, rent, redistribute or otherwise transfer the icon without express written permission from iconmonstr.com -->


<!DOCTYPE svg PUBLIC "-//W3C//DTD SVG 1.1//EN" "http://www.w3.org/Graphics/SVG/1.1/DTD/svg11.dtd">

<svg version="1.1" xmlns="http://www.w3.org/2000/svg" xmlns:xlink="http://www.w3.org/1999/xlink" x="0px" y="0px"

	 width="512px" height="512px" viewBox="0 0 512 512" enable-background="new 0 0 512 512" xml:space="preserve">

<path id="soundcloud-square-rounded-icon" d="M411.945,50h-312c-27.614,0-50,22.386-50,50v312c0,27.614,22.386,50,50,50h312

	c27.614,0,50-22.386,50-50V100C461.945,72.386,439.56,50,411.945,50z M110.152,298.873c-5.422-6.299-8.707-14.488-8.707-23.45

	s3.285-17.151,8.707-23.448V298.873z M125.598,309.396c-3.365-1.171-6.502-2.824-9.33-4.883v-58.179

	c2.828-2.059,5.965-3.712,9.33-4.883V309.396z M143.945,311.392h-6.531c-1.582,0-3.137-0.112-4.664-0.311v-71.315

	c1.527-0.198,3.082-0.311,4.664-0.311c2.23,0,4.412,0.205,6.531,0.595V311.392z M163.225,311.392h-12.439v-69.355

	c2.191,0.879,4.277,1.963,6.23,3.235c1.288-5.434,3.41-10.543,6.209-15.199V311.392z M182.505,311.392h-12.438v-90.375

	c3.624-3.873,7.812-7.208,12.438-9.873V311.392z M202.406,311.392h-12.438V207.584c3.944-1.52,8.108-2.593,12.438-3.145V311.392z

	 M222.309,311.392H209.87V204.014c4.285,0.049,8.45,0.598,12.438,1.595V311.392z M242.211,311.392h-12.438V208.074

	c1.719,0.712,3.396,1.505,5.019,2.384c2.163-3.544,4.651-6.868,7.42-9.935V311.392z M261.491,311.392h-12.438V193.959

	c3.809-3.172,7.979-5.925,12.438-8.189V311.392z M372.974,311.392H268.746V182.618c3.983-1.453,8.143-2.535,12.439-3.206

	c3.361-0.524,6.805-0.804,10.314-0.804c34.887,0,63.487,26.909,66.183,61.104c4.671-2.091,9.843-3.264,15.291-3.264

	c20.695,0,37.472,16.776,37.472,37.472S393.669,311.392,372.974,311.392z"/>

</svg>

