<?xml version="1.0" encoding="utf-8"?>

<!-- License Agreement at http://iconmonstr.com/license/ -->

<!DOCTYPE svg PUBLIC "-//W3C//DTD SVG 1.1//EN" "http://www.w3.org/Graphics/SVG/1.1/DTD/svg11.dtd">
<svg version="1.1" xmlns="http://www.w3.org/2000/svg" xmlns:xlink="http://www.w3.org/1999/xlink" x="0px" y="0px"
	 width="512px" height="512px" viewBox="0 0 512 512" style="enable-background:new 0 0 512 512;" xml:space="preserve">
<path id="drop-5-icon" d="M163.26,193.167l144.727-65.783c9.488,14.451,18.34,28.265,26.42,41.441l-203.469,92.472
	C138.499,239.906,149.379,217.476,163.26,193.167z M120.326,303.812c-1.006,7.426-1.66,14.803-1.66,22.129
	c0,10.494,1.308,20.653,3.571,30.443l251.397-114.232c-6.001-13.915-13.293-28.382-21.776-43.554L120.326,303.812z M165.338,427.969
	l227.996-103.621c-0.168-16.328-2.935-32.807-7.914-49.84L134.19,388.673C142.053,403.627,152.664,416.904,165.338,427.969z
	 M288.74,98.432C278.414,83.06,267.533,66.999,256.033,50c-22.615,33.428-42.967,63.369-60.737,90.896L288.74,98.432z
	 M199.806,449.997C216.973,457.642,235.983,462,256.033,462c62.33,0,114.836-41.072,131.668-97.367L199.806,449.997z"/>
</svg>
