<?xml version="1.0" encoding="utf-8"?>

<!-- License Agreement at http://iconmonstr.com/license/ -->

<!DOCTYPE svg PUBLIC "-//W3C//DTD SVG 1.1//EN" "http://www.w3.org/Graphics/SVG/1.1/DTD/svg11.dtd">
<svg version="1.1" xmlns="http://www.w3.org/2000/svg" xmlns:xlink="http://www.w3.org/1999/xlink" x="0px" y="0px"
	 width="512px" height="512px" viewBox="0 0 512 512" enable-background="new 0 0 512 512" xml:space="preserve">
<path id="battery-12-icon" d="M372,186v140H80V186H372 M402,156H50v200h352V156z M462,227v58c0,8.837-7.164,16-16,16h-24v-90h24
	C454.836,211,462,218.163,462,227z M227.347,256.425v-19.949l38.985,31.977l-27.07-8.018v18.242l-39.419-30.818L227.347,256.425z
	 M190.607,254.813c-0.073,2.68,0.099,5.336,0.532,8.018l-11.526,2.961c-0.661-3.629-0.948-7.273-0.868-10.979H190.607z
	 M186.972,284.763l9.687-6.887c-1.402-2.328-2.59-4.801-3.531-7.393l-11.531,2.963C182.953,277.45,184.768,281.24,186.972,284.763z
	 M207.429,289.843c-2.203-1.668-4.237-3.546-6.074-5.604l-9.713,6.905c2.876,3.381,6.156,6.406,9.77,8.999L207.429,289.843z
	 M233.021,201.708c-14.815,0-29.298,5.936-39.094,15.559l-9.347-9.348l-6.069,33.255l33.255-6.071l-9.451-9.449
	c7.649-7.478,19.165-12.084,30.706-12.084c23.434,0,42.432,18.996,42.432,42.43c0,23.436-18.998,42.432-42.432,42.432
	c-6.78,0-13.187-1.594-18.872-4.42l-5.994,10.262c7.45,3.846,15.904,6.019,24.866,6.019c29.984,0,54.291-24.306,54.291-54.292
	C287.312,226.015,263.006,201.708,233.021,201.708z"/>
</svg>
