<?xml version="1.0" encoding="utf-8"?>

<!-- License Agreement at http://iconmonstr.com/license/ -->

<!DOCTYPE svg PUBLIC "-//W3C//DTD SVG 1.1//EN" "http://www.w3.org/Graphics/SVG/1.1/DTD/svg11.dtd">
<svg version="1.1" xmlns="http://www.w3.org/2000/svg" xmlns:xlink="http://www.w3.org/1999/xlink" x="0px" y="0px"
	 width="512px" height="512px" viewBox="0 0 512 512" enable-background="new 0 0 512 512" xml:space="preserve">
<path id="radio-5-icon" d="M427,181.458H85c-19.33,0-35,15.67-35,35v199.833c0,19.33,15.67,35,35,35h342c19.33,0,35-15.67,35-35
	V216.458C462,197.128,446.33,181.458,427,181.458z M197.918,281.125h-33.389l-18.611-27.417l-19.012,27.417H90.501v-59.001h146.667
	C217.25,235.458,202,263.125,197.918,281.125z M329.209,411.25c-52.031,0-94.209-42.178-94.209-94.209
	c0-52.029,42.178-94.208,94.209-94.208c52.028,0,94.207,42.179,94.207,94.208C423.416,369.072,381.237,411.25,329.209,411.25z
	 M97.43,164.626l0.012-0.009c11.421-9.226,18.059-23.12,18.059-37.802V70.709c0-5.522,4.478-10,10-10c5.523,0,10,4.478,10,10v56.106
	c0,14.687,6.643,28.586,18.071,37.811H97.43z M391.969,332h-72.941v-80.262h22.529v57.73h50.412V332z"/>
</svg>
