<?xml version="1.0" encoding="utf-8"?>

<!-- License Agreement at http://iconmonstr.com/license/ -->

<!DOCTYPE svg PUBLIC "-//W3C//DTD SVG 1.1//EN" "http://www.w3.org/Graphics/SVG/1.1/DTD/svg11.dtd">
<svg version="1.1" xmlns="http://www.w3.org/2000/svg" xmlns:xlink="http://www.w3.org/1999/xlink" x="0px" y="0px"
	 width="512px" height="512px" viewBox="0 0 512 512" style="enable-background:new 0 0 512 512;" xml:space="preserve">
<path id="cube-18-icon" d="M359,222.195V111.936L255.38,50L153,111.274v111.558L50,278.18v123.871L155.33,462L256,403.761
	L356.67,462L462,402.051V278.85L359,222.195z M339.386,222.824l-74.183,40.93v-85.087l74.183-43.579V222.824z M255.346,73.294
	l73.343,44.568L255.43,160.93l-71.701-43.839L255.346,73.294z M80.729,283.996l82.028-43.436l72.74,41.492l-80.133,45.8
	L80.729,283.996z M165.137,345.572l81.056-46.295v86.78L165.137,433.4V345.572z M276.922,281.272l72.908-41.031l81.859,44.535
	l-74.969,43.075L276.922,281.272z M442.386,389.812L366.494,433.4v-87.828l75.892-43.57V389.812z"/>
</svg>
