<?xml version="1.0" encoding="utf-8"?>


<!-- The icon can be used freely in both personal and commercial projects with no attribution required, but always appreciated. 
You may NOT sub-license, resell, rent, redistribute or otherwise transfer the icon without express written permission from iconmonstr.com -->


<!DOCTYPE svg PUBLIC "-//W3C//DTD SVG 1.1//EN" "http://www.w3.org/Graphics/SVG/1.1/DTD/svg11.dtd">

<svg version="1.1" xmlns="http://www.w3.org/2000/svg" xmlns:xlink="http://www.w3.org/1999/xlink" x="0px" y="0px"

	 width="512px" height="512px" viewBox="0 0 512 512" enable-background="new 0 0 512 512" xml:space="preserve">

<path id="cargo-circle-outline-icon" d="M256.417,90c44.34,0,86.026,17.267,117.38,48.62c31.354,31.354,48.62,73.04,48.62,117.38

	c0,44.34-17.267,86.026-48.62,117.38c-31.354,31.353-73.04,48.62-117.38,48.62s-86.026-17.268-117.38-48.62

	c-31.354-31.354-48.62-73.04-48.62-117.38c0-44.34,17.267-86.026,48.62-117.38C170.391,107.267,212.077,90,256.417,90 M256.417,50

	c-113.771,0-206,92.229-206,206s92.229,206,206,206s206-92.229,206-206S370.188,50,256.417,50L256.417,50z M298.027,130.898

	L186.881,281.473h61.957l-35.297,97.629l122.411-143.44h-74.535L298.027,130.898z"/>

</svg>

