<?xml version="1.0" encoding="utf-8"?>

<!-- The icon can be used freely in both personal and commercial projects with no attribution required, but always appreciated. 
You may NOT sub-license, resell, rent, redistribute or otherwise transfer the icon without express written permission from iconmonstr.com -->

<!DOCTYPE svg PUBLIC "-//W3C//DTD SVG 1.1//EN" "http://www.w3.org/Graphics/SVG/1.1/DTD/svg11.dtd">
<svg version="1.1" xmlns="http://www.w3.org/2000/svg" xmlns:xlink="http://www.w3.org/1999/xlink" x="0px" y="0px"
	 width="512px" height="512px" viewBox="0 0 512 512" enable-background="new 0 0 512 512" xml:space="preserve">
<path id="monitoring-5-icon" d="M166.18,281.002l14.459-88.091l14.762,63.403c1.468,6.498,10.49,7.231,12.939,0.977l13.378-34.188
	c0,0,6.469,15.01,7.692,17.57c1.225,2.564,2.509,4.219,6.678,4.219h16.411V231.3h-12l-12.836-28.751
	c-2.393-5.57-10.343-5.452-12.556,0.204l-11.34,28.986l-17.475-77.408c-1.654-7.32-12.128-6.91-13.315,0.405l-14.495,89.423
	L143.66,189.1c-1.654-6.577-10.935-6.949-13.038-0.431l-11.027,42.648H107v13.574h17.937c2.45,0,5.105-1.984,5.8-4.333l6.245-22.353
	l15.921,63.357C154.704,288.725,165.001,288.251,166.18,281.002z M408.492,344.438c7.824-12.331,12.361-26.944,12.361-42.597
	c0-43.967-35.769-79.736-79.735-79.736c-43.965,0-79.734,35.77-79.734,79.736c0,43.964,35.77,79.734,79.734,79.734
	c14.878,0,28.812-4.101,40.745-11.222l53.863,53.864L462,397.944L408.492,344.438z M341.118,351.851
	c-27.575,0-50.009-22.436-50.009-50.01c0-27.577,22.434-50.012,50.009-50.012c27.576,0,50.013,22.435,50.013,50.012
	C391.131,329.415,368.694,351.851,341.118,351.851z M240.872,346.456H50V87.782h334.583v113.307
	c-10.639-4.607-22.143-7.576-34.197-8.59v-70.521l-266.189,0.002v190.28h147.686C233.023,324.33,236.127,335.836,240.872,346.456z
	 M293.86,400.866H135.677l34.194-34.195h82.769C263.312,381.195,277.464,393.009,293.86,400.866z"/>
</svg>
