<?xml version="1.0" encoding="utf-8"?>


<!-- The icon can be used freely in both personal and commercial projects with no attribution required, but always appreciated. 
You may NOT sub-license, resell, rent, redistribute or otherwise transfer the icon without express written permission from iconmonstr.com -->


<!DOCTYPE svg PUBLIC "-//W3C//DTD SVG 1.1//EN" "http://www.w3.org/Graphics/SVG/1.1/DTD/svg11.dtd">

<svg version="1.1" xmlns="http://www.w3.org/2000/svg" xmlns:xlink="http://www.w3.org/1999/xlink" x="0px" y="0px"

	 width="512px" height="512px" viewBox="0 0 512 512" enable-background="new 0 0 512 512" xml:space="preserve">

<path id="square-dashed-rounded-icon" d="M304,50v50h-96V50H304z M304,462v-50h-96v50H304z M50,303.528h50v-96H50V303.528z M354,100

	h33c13.807,0,25,11.192,25,25v32.528h50V100c0-27.614-22.386-50-50-50h-58V100z M412,353.528V387c0,13.808-11.193,25-25,25h-33v50

	h58c27.614,0,50-22.386,50-50v-58.472H412z M158,412h-33c-13.807,0-25-11.192-25-25v-33.472H50V412c0,27.614,22.386,50,50,50h58V412

	z M100,157.528V125c0-13.808,11.193-25,25-25h33V50h-58c-27.614,0-50,22.386-50,50v57.528H100z M462,207.528h-50v96h50V207.528z"/>

</svg>

