<?xml version="1.0" encoding="utf-8"?>


<!-- The icon can be used freely in both personal and commercial projects with no attribution required, but always appreciated. 
You may NOT sub-license, resell, rent, redistribute or otherwise transfer the icon without express written permission from iconmonstr.com -->


<!DOCTYPE svg PUBLIC "-//W3C//DTD SVG 1.1//EN" "http://www.w3.org/Graphics/SVG/1.1/DTD/svg11.dtd">

<svg version="1.1" xmlns="http://www.w3.org/2000/svg" xmlns:xlink="http://www.w3.org/1999/xlink" x="0px" y="0px"

	 width="512px" height="512px" viewBox="0 0 512 512" enable-background="new 0 0 512 512" xml:space="preserve">

<path id="forrst-square-rounded-icon" d="M412,50H100c-27.614,0-50,22.386-50,50v312c0,27.614,22.386,50,50,50h312

	c27.614,0,50-22.386,50-50V100C462,72.386,439.614,50,412,50z M270.277,400.2v-45.954l49.881-25.586l-5.213-10.162l-44.668,22.911

	v-18.216l29.068-15.856l-5.469-10.028l-23.6,12.873v-31.02h-26.967v48.172l-23.753-17.404l-6.749,9.214l30.502,22.349V400.2H136.072

	L256,111.8l119.928,288.4H270.277z"/>

</svg>

