<?xml version="1.0" encoding="utf-8"?>

<!-- License Agreement at http://iconmonstr.com/license/ -->

<!DOCTYPE svg PUBLIC "-//W3C//DTD SVG 1.1//EN" "http://www.w3.org/Graphics/SVG/1.1/DTD/svg11.dtd">
<svg version="1.1" xmlns="http://www.w3.org/2000/svg" xmlns:xlink="http://www.w3.org/1999/xlink" x="0px" y="0px"
	 width="512px" height="512px" viewBox="0 0 512 512" style="enable-background:new 0 0 512 512;" xml:space="preserve">
<path id="language-9-icon" d="M360.609,328.475c0.35,5.307,0.947,10.194,1.777,14.557
	C351.199,345.08,350.746,334.043,360.609,328.475z M281.404,325.891h18.08l-9-25.819L281.404,325.891z M372.992,324.65
	c0.188,4.231,0.535,8.198,1.037,11.817c3.283-3.395,5.859-7.713,7.818-12.053C379.01,324.184,375.988,324.262,372.992,324.65z
	 M331.701,216.923c68.719,0,130.1,46.261,130.1,109.53c0,22.44-8.01,44.473-22.189,61.572
	c-0.598,20.034,11.084,48.771,21.609,69.705c-28.209-5.147-68.312-16.514-86.5-27.757c-100.137,24.591-173.12-37.274-173.12-103.521
	C201.601,262.835,263.41,216.923,331.701,216.923z M325.688,355.988l-27.799-72.177h-14.6l-27.7,72.177h15.118l6.557-18.495h26.26
	l6.557,18.495H325.688z M398.064,315.833c0.707-2.728,1.125-4.773,1.518-6.794l-12.33-2.401c-0.203,1.033-0.572,2.99-1.232,5.604
	c-4.162-0.608-8.59-0.686-13.074-0.229c0.102-3.011,0.285-5.963,0.547-8.8h13.773v-11.677h-12.119c0.6-2.979,1.113-4.76,1.615-6.441
	l-12.037-3.598c-0.881,2.951-1.623,5.825-2.363,10.039h-13.744v11.677h12.244c-0.324,3.778-0.52,7.688-0.582,11.646
	c-29.484,10.838-21.98,43.06,1.389,40.939c15.711-1.428,26.205-13.299,32.355-27.895c6.357,3.669,9.016,9.837,6.621,15.536
	c-2.215,5.275-8.75,10.306-21.217,10.05v12.566c13.84,0.213,27.459-5.042,32.797-17.75
	C417.439,335.899,411.484,322.325,398.064,315.833z M252.841,178.613c0.007-0.025-6.896-0.344-6.076,1.08
	C248.872,183.329,252.299,181.515,252.841,178.613z M222.159,224.52c14.771-11.965,31.809-21.316,50.642-27.797
	c3.732-1.283,7.5-2.438,11.297-3.471c-5.961-0.438-10.141-2.072-15.971-2.898c-4.947-0.698-6.477,13.846-14.311,4.405
	c-2.212-2.643-9.117-5.485-12.524-5.653c1.459,0.254,1.236-5.626,1.006-6.672c-1.133-5.062-19.641-1.126-24.08-0.389
	c-2.856,0.477-13.797,0.927-15.005,1.907c-8.202,2.959-8.327,17.452-17.933,16.364c-4.291,0-11.81,13.072-13.088,15.926
	c-1.082,2.419,1.498,7.066,0.557,10.273c-0.484,3.045-2.523,6.024-2.737,9.088c-1.084,3.588,4.192,18.743,5.853,21.284
	c3.292,5.042,7.124,7.407,11.358,8.871C195.671,250.421,207.41,236.466,222.159,224.52z M178.745,367.617
	c-19.687-7.64-37.264-19.51-51.604-34.504c-1.582-1.66-5.638-9.798-4.127-11.673c1.265-1.566,5.466-4.998,7.62-3.461
	c2.85,2.045,0.614-19.731,0.686-19.783c10.378-7.466,4.597-16.035-1.699-23.278c-2.363-2.717-15.47-16.078-16.979-13.624
	c0.485-1.605-0.815-8.093-1.294-9.833c-2.425-8.766-11.903-16.267-15.017-27.605c-0.825-2.988-0.562-4.825-0.735-7.807
	c-0.167-2.74-2.501-0.892-2.783-2.545c-0.318-1.703-3.442-1.84-3.267-2.906c4.579-27.049,16.746-51.589,34.195-71.156
	c3.244-3.641,8.097-7.032,13.422-6.727c2.85,0.166,3.324-5.119,4.175-5.265c6.765,0-1.758-2.341-1.452-1.728
	c-0.571-1.137,14.242,0.318,15.057-0.229c3.954-1.764,3.707-8.924,7.712-11.451c4.505-2.846,1.089-2.901,0.241-4.18
	c-1.365-2.208,10.012-5.304,11.6-6.893c-0.25,0.21-1.066,1.439-0.487,1.596c1.924,0.523,4.473-5.015,6.89-3.97
	c-0.062-0.027-1.685,1.747-1.877,1.913c2.998-0.422,21.004-11.65,22.113-7.295c0.373,1.482-4.487,0.96-3.802,2.213
	c0.302,0.536,2.074-0.849,1.982-0.188c-0.792,4.495-17.685,5.31-15.157,10.138c-1.219-2.331-8.916,10.02-5.39,9.873
	c5.62-0.227,9.943-8.706,16.386-8.322c0.185,0.011-1.202,0.606-1.031,0.878c0.565,0.947,8.904-2.631,10.485-2.082
	c6.384,2.218,17.51-4.504,22.407-7.781c5.622-3.764,8.775-8.378,15.916-7.756c7.602,0.659,15.146,1.927,22.54,3.795
	c3.008,0.76,22.189,5.762,18.27,10.089c0.055-0.059-9.459,4.808-7.238,5.567c-2.381-0.809-2.699,4.178-2.984,4.55
	c-0.51,0.673-2.754-0.714-2.859,0.266c0.604,0.477,1.268,0.838,1.99,1.095c1.469,1.622-9.5-3.861-3.621-3.707
	c4.438,0.116-0.91-3.518-2.863-3.7c-7.857-0.72-9.533-5.998-17.363,0.587c-2.894,2.433-4.055,6.378-6.696,8.882
	c-2.643,2.506-9.074,3.248-8.833,8.049c0.218,4.386,3.798,4.471,6.686,3.23c0.376-0.161,12.349,11.688,10.788,2.048
	c-0.406-2.528,0.238-6.036,0.519-8.535c0.325-2.775,2.948-3.707,2.93-5.941c-0.041-4.061,4.588-1.58,3.512-0.225
	c-1.585,2.031-3.752,9.138,0.873,9.51c1.732,0.136,6.941-3.159,7.83-1.071c-0.852-1.202-6.49,6.276-6.967,6.061
	c-2.184-0.983-0.977,4.017-1.641,5.094c-1.881,3.072-5.315,1.251-8.158,2.761c-0.423,0.228-7.39-1.66-6.991-0.479
	c-0.277-2.242-4.213-0.525-0.962-4.13c0.476-0.641,0.747-2.678-0.289-3.111c-5.048,2.522,0.163,8.241-6.826,8.885
	c-2.038,0.199-7.302,4.775-8.57,6.24c-1.458,1.69-10.419,5.245-11.415,5.145c5.23,0.566,6.715,6.781,3.739,10.583
	c-2.941,3.769-15.364-5.729-15.499,1.608c-0.08,4.474-4.701,8.323-2.645,12.366c0.467,0.898,7.043,3.021,7.023,3.022
	c2.563-0.762,12.817-0.609,11.125-6.01c-0.597-1.945,3.537-4.288,4.564-4.716c3.543-1.457,3.125-4.793,5.632-5.792
	c1.952-0.772,3.225,1.877,5.188,0.752c1.632-1.033,3.335-1.911,5.12-2.637c2.757-0.127,8.938,6.563,10.579,8.587
	c1.05,1.312,3.142,1.684,3.915,3.229c1.209,1.869-0.884,2.49-0.1,3.818c0.376,0.65,4.185-2.783,1.942-3.839
	c-1.876-0.925,1.099-1.565,2.512-0.275c1.846,1.656-4.931-6.983-4.672-4.593c-0.056-0.502-6.688-6.514-7.601-8.146
	c-1.394-2.521,8.164,3.271,8.44,3.473c2.221,1.621,6.33,2.715,6.697,5.8c0.432,3.688,3.473,5.841,6.947,4.548
	c1.188-0.438-0.637-2.277,0.936-3.417c2.771-1.993,5.143,0.355,7.717-1.543c-3.748,2.73-0.971,4.802,0.713,7.606
	c2.732,4.58,12.406,2.14,15.775,0.734c2.844-1.186,5.646,7.928,1.527,12.521c12.273-2.589,24.832-3.897,37.535-3.897
	c20.281,0,40.17,3.317,59.113,9.86c5.881,2.031,11.586,4.344,17.102,6.929C393.332,118.847,319.396,54.27,230.364,54.27
	c-99.502,0-180.165,80.664-180.165,180.167c0,91.206,67.775,166.571,155.706,178.508
	C193.795,399.475,184.61,384.144,178.745,367.617z M286.877,154.612c0.699-0.697,3.838-2.464,5.062-2.608
	c1.162-0.164-1.516,2.406-1.518,2.387c0.42,3.566,3.143,5.619,8.232,7.453c7.682,2.781-1.338,5.562-4.777,5.248
	c-2.361-0.211-9.721-3.747-10.689,0.608c-0.234,2.485-9.498-0.042-8.102-2.531c1.777-3.107,2.332-13.307,8.574-9.083
	c1.016,0.682-0.516,1.035-0.498,1.566C283.334,166.162,289.639,152.6,286.877,154.612z M207.383,143.288
	c0.552,0.554,1.169,0.602,1.854,0.142c-0.156,0.067-0.309,0.133,0.02-0.011c1.824-0.791,7.86-4.045,5.654-6.555
	C212.63,134.274,206.983,141.106,207.383,143.288z M214.81,143.346c-0.805,0.885,3.685,1.083,3.723,1.208
	c0.178,0.491-5.33,1.23-4.344,2.452c0.182,0.229,10.854-0.833,10.833-1.273c0-0.306-1.147-1.133-0.716-1.249
	c3.936-1.073-0.084-2.045-1.378-2.714c-0.159-0.64,1.121-3.39-1.085-3.095c-0.24,0.078-0.208-2.105-0.248-2.26
	c-0.35-1.395-0.14-2.637,0.639-3.727c0.26-0.363-2.289-1.151-2.354-0.745c-0.163-0.597,1.584-0.911,1.279-1.351
	c-2.988-4.274-5.146,5.172-5.158,5.188c-0.759,0.196,1.668-0.356,1.541-0.45c0.949,0.676-1.012,1.406-0.725,1.94
	c1.143,2.153,0.307,3.55,0.123,4.741C216.729,143.355,215.46,142.625,214.81,143.346z"/>
</svg>
