<?xml version="1.0" encoding="utf-8"?>


<!-- The icon can be used freely in both personal and commercial projects with no attribution required, but always appreciated. 
You may NOT sub-license, resell, rent, redistribute or otherwise transfer the icon without express written permission from iconmonstr.com -->


<!DOCTYPE svg PUBLIC "-//W3C//DTD SVG 1.1//EN" "http://www.w3.org/Graphics/SVG/1.1/DTD/svg11.dtd">

<svg version="1.1" xmlns="http://www.w3.org/2000/svg" xmlns:xlink="http://www.w3.org/1999/xlink" x="0px" y="0px"

	 width="512px" height="512px" viewBox="0 0 512 512" enable-background="new 0 0 512 512" xml:space="preserve">

<path id="soundcloud-circle-outline-icon" d="M256.417,90c44.34,0,86.026,17.267,117.38,48.62

	c31.354,31.354,48.62,73.04,48.62,117.38c0,44.34-17.267,86.026-48.62,117.38c-31.354,31.353-73.04,48.62-117.38,48.62

	s-86.026-17.268-117.38-48.62c-31.354-31.354-48.62-73.04-48.62-117.38c0-44.34,17.267-86.026,48.62-117.38

	C170.391,107.267,212.077,90,256.417,90 M256.417,50c-113.771,0-206,92.229-206,206s92.229,206,206,206s206-92.229,206-206

	S370.188,50,256.417,50L256.417,50z M383.562,268.424c0,16.764-13.589,30.353-30.352,30.353h-84.425V194.47

	c3.227-1.177,6.596-2.053,10.076-2.597c2.723-0.425,5.512-0.651,8.354-0.651c28.259,0,51.425,21.796,53.608,49.494

	c3.783-1.694,7.973-2.644,12.386-2.644C369.973,238.073,383.562,251.662,383.562,268.424z M237.217,215.089v83.687h10.075v-89.803

	c-2.242,2.483-4.258,5.177-6.011,8.047C239.967,216.309,238.609,215.666,237.217,215.089z M252.834,298.776h10.075V197.024

	c-3.612,1.834-6.99,4.063-10.075,6.633V298.776z M188.854,225.573v73.204h10.075v-81.201

	C195.183,219.735,191.79,222.436,188.854,225.573z M158.629,240.76v57.766c1.237,0.16,2.496,0.251,3.777,0.251h5.291V240.99

	c-1.717-0.315-3.484-0.481-5.291-0.481C161.125,240.508,159.866,240.599,158.629,240.76z M145.278,293.204

	c2.29,1.669,4.831,3.008,7.557,3.955v-55.034c-2.726,0.948-5.267,2.288-7.557,3.955V293.204z M173.236,242.599v56.177h10.076

	v-65.868c-2.267,3.771-3.985,7.91-5.029,12.312C176.701,244.189,175.012,243.312,173.236,242.599z M204.975,298.776h10.075v-86.631

	c-3.507,0.447-6.88,1.316-10.075,2.547V298.776z M221.096,298.776h10.075v-85.684c-3.23-0.808-6.604-1.252-10.075-1.292V298.776z

	 M140.324,288.637v-37.988c-4.392,5.101-7.052,11.734-7.052,18.994C133.272,276.901,135.933,283.535,140.324,288.637z"/>

</svg>

