<?xml version="1.0" encoding="utf-8"?>

<!-- License Agreement at http://iconmonstr.com/license/ -->

<!DOCTYPE svg PUBLIC "-//W3C//DTD SVG 1.1//EN" "http://www.w3.org/Graphics/SVG/1.1/DTD/svg11.dtd">
<svg version="1.1" xmlns="http://www.w3.org/2000/svg" xmlns:xlink="http://www.w3.org/1999/xlink" x="0px" y="0px"
	 width="512px" height="512px" viewBox="0 0 512 512" enable-background="new 0 0 512 512" xml:space="preserve">
<path id="loading-14-icon" d="M256,50C142.23,50,50,142.23,50,256s92.23,206,206,206s206-92.23,206-206S369.77,50,256,50z
	 M256.001,124.6c72.568,0,131.399,58.829,131.399,131.401c0,72.568-58.831,131.398-131.399,131.398
	c-72.572,0-131.401-58.83-131.401-131.398C124.6,183.429,183.429,124.6,256.001,124.6z M70,256
	c0-49.682,19.348-96.391,54.479-131.521S206.318,70,256,70v34.6c-83.482,0.001-151.4,67.918-151.4,151.401
	c0,41.807,17.035,79.709,44.526,107.134l-24.269,24.757c-0.125-0.125-0.254-0.245-0.379-0.37C89.348,352.391,70,305.682,70,256z"/>
</svg>
