<?xml version="1.0" encoding="utf-8"?>

<!-- License Agreement at http://iconmonstr.com/license/ -->

<!DOCTYPE svg PUBLIC "-//W3C//DTD SVG 1.1//EN" "http://www.w3.org/Graphics/SVG/1.1/DTD/svg11.dtd">
<svg version="1.1" xmlns="http://www.w3.org/2000/svg" xmlns:xlink="http://www.w3.org/1999/xlink" x="0px" y="0px"
	 width="512px" height="512px" viewBox="0 0 512 512" style="enable-background:new 0 0 512 512;" xml:space="preserve">
<path id="steam-3-icon" d="M211.466,344.984c7.393-17.602-0.864-37.87-18.475-45.279l-30.243-12.725
	c5.675-2.146,11.224-3.118,16.865-3.135c26.06,0,47.46,21.207,47.703,47.275c0.243,26.404-20.897,47.93-47.267,48.164
	c-19.891,0.1-36.697-11.735-44.132-28.566l30.268,12.724C183.813,370.853,204.064,362.555,211.466,344.984z M376.166,50H135.833
	C88.432,50,50,88.432,50,135.833V239.58l95.884,40.327c10.234-6.706,22.028-10.293,35.121-10.018l51.793-72.463
	c0.813-43.621,36.413-78.759,80.234-78.759c44.325,0,80.302,35.951,80.302,80.293c0,44.3-36.01,80.728-81.24,80.242l-70.645,52.674
	c-0.05,0.033-0.109,0.033-0.151,0.067c-0.193,33.663-27.343,61.056-61.131,61.392c-30.511,0.251-55.515-21.442-61.114-49.689
	L50,314.592v61.574C50,423.576,88.432,462,135.833,462h240.333c47.41,0,85.834-38.424,85.834-85.834V135.833
	C462,88.432,423.576,50,376.166,50z M313.032,253.544c-30.075,0-54.576-24.493-54.576-54.584c0-30.101,24.501-54.576,54.576-54.576
	c30.108,0,54.567,24.476,54.567,54.576C367.6,229.051,343.141,253.544,313.032,253.544z M313.032,240.174
	c22.749,0,41.206-18.482,41.206-41.215c0-22.716-18.457-41.224-41.206-41.224c-22.732,0-41.224,18.508-41.224,41.224
	C271.809,221.692,290.3,240.174,313.032,240.174z"/>
</svg>
