<?xml version="1.0" encoding="iso-8859-1"?>
<!-- Generator: Adobe Illustrator 16.0.0, SVG Export Plug-In . SVG Version: 6.00 Build 0)  -->
<!DOCTYPE svg PUBLIC "-//W3C//DTD SVG 1.1//EN" "http://www.w3.org/Graphics/SVG/1.1/DTD/svg11.dtd">
<svg version="1.1" id="Layer_1" xmlns="http://www.w3.org/2000/svg" xmlns:xlink="http://www.w3.org/1999/xlink" x="0px" y="0px"
	 width="44.596px" height="29.841px" viewBox="0 0 44.596 29.841" style="enable-background:new 0 0 44.596 29.841;"
	 xml:space="preserve">
<path d="M24.74,22.949h19.855L36.927,0H7.668L0,22.949h18.928v4.392h-5.612v2.5h16.029v-2.5H24.74V22.949z M22.798,11.006V2h6.191
	l1.564,9.006H22.798z M30.727,12.006l1.553,8.943h-9.481v-8.943H30.727z M21.798,11.006h-7.561L15.856,2h5.941V11.006z
	 M21.798,12.006v8.943h-9.349l1.608-8.943H21.798z M33.294,20.949l-1.553-8.943h7.088l2.988,8.943H33.294z M38.496,11.006h-6.928
	L30.004,2h5.483L38.496,11.006z M9.109,2h5.731l-1.619,9.006H6.1L9.109,2z M5.766,12.006h7.275l-1.608,8.943H2.777L5.766,12.006z"/>
<g>
</g>
<g>
</g>
<g>
</g>
<g>
</g>
<g>
</g>
<g>
</g>
<g>
</g>
<g>
</g>
<g>
</g>
<g>
</g>
<g>
</g>
<g>
</g>
<g>
</g>
<g>
</g>
<g>
</g>
</svg>
