<?xml version="1.0" encoding="iso-8859-1"?>
<!-- Generator: Adobe Illustrator 16.0.4, SVG Export Plug-In . SVG Version: 6.00 Build 0)  -->
<!DOCTYPE svg PUBLIC "-//W3C//DTD SVG 1.1//EN" "http://www.w3.org/Graphics/SVG/1.1/DTD/svg11.dtd">
<svg version="1.1" id="Capa_1" xmlns="http://www.w3.org/2000/svg" xmlns:xlink="http://www.w3.org/1999/xlink" x="0px" y="0px"
	 width="20px" height="20px" viewBox="0 0 20 20" style="enable-background:new 0 0 20 20;" xml:space="preserve">
<path style="fill:#010002;" d="M7.933,12.607l-0.108-0.062V4.022c0-0.6-0.486-1.087-1.086-1.087c-0.601,0-1.089,0.487-1.089,1.087
	v8.522l-0.107,0.062c-0.738,0.428-1.197,1.221-1.197,2.066c0,1.319,1.074,2.392,2.393,2.392c1.319,0,2.394-1.073,2.394-2.392
	C9.131,13.828,8.671,13.035,7.933,12.607z M6.737,16.195c-0.842,0-1.522-0.682-1.522-1.522c0-0.606,0.357-1.126,0.87-1.371V9.671
	h1.306v3.631c0.513,0.245,0.87,0.765,0.87,1.371C8.261,15.513,7.579,16.195,6.737,16.195z M16,0H4C1.8,0,0,1.8,0,4v12
	c0,2.2,1.8,4,4,4h12c2.2,0,4-1.8,4-4V4C20,1.8,18.2,0,16,0z M6.737,17.5c-1.559,0-2.827-1.269-2.827-2.827
	c0-0.958,0.498-1.857,1.305-2.375V4.017C5.219,3.179,5.899,2.5,6.738,2.5c0.837,0,1.519,0.679,1.522,1.517c0,0.002,0,0.004,0,0.005
	v8.275c0.806,0.518,1.304,1.417,1.304,2.376C9.564,16.231,8.297,17.5,6.737,17.5z M16.09,7.278h-5.654v-0.87h5.654V7.278z"/>
<g>
</g>
<g>
</g>
<g>
</g>
<g>
</g>
<g>
</g>
<g>
</g>
<g>
</g>
<g>
</g>
<g>
</g>
<g>
</g>
<g>
</g>
<g>
</g>
<g>
</g>
<g>
</g>
<g>
</g>
</svg>
