<?xml version="1.0" encoding="utf-8"?>
<!-- Generator: Adobe Illustrator 16.0.4, SVG Export Plug-In . SVG Version: 6.00 Build 0)  -->
<!DOCTYPE svg PUBLIC "-//W3C//DTD SVG 1.1//EN" "http://www.w3.org/Graphics/SVG/1.1/DTD/svg11.dtd">
<svg version="1.1" id="Capa_1" xmlns="http://www.w3.org/2000/svg" xmlns:xlink="http://www.w3.org/1999/xlink" x="0px" y="0px"
	 width="64px" height="64px" viewBox="0 0 64 64" enable-background="new 0 0 64 64" xml:space="preserve">
<g>
	<path d="M31.627,6.403c-14.121,0-25.609,11.488-25.609,25.609c0,14.121,11.488,25.609,25.609,25.609
		c14.121,0,25.609-11.488,25.609-25.609C57.236,17.891,45.748,6.403,31.627,6.403z M55.236,32.012c0,0.997-0.069,1.977-0.189,2.942
		l-2.241-0.394c0.114-0.893,0.192-1.795,0.192-2.718c0-0.923-0.078-1.827-0.192-2.719l2.198-0.389
		C55.153,29.807,55.236,30.899,55.236,32.012z M23.388,51.558l-0.82,2.253c-1.951-0.813-3.767-1.885-5.413-3.165l1.536-1.831
		C20.129,49.913,21.697,50.849,23.388,51.558z M25.265,52.246c1.704,0.533,3.506,0.83,5.362,0.917v2.433
		c-2.147-0.09-4.22-0.467-6.183-1.096L25.265,52.246z M32.627,53.163c1.856-0.087,3.659-0.385,5.363-0.917l0.82,2.254
		c-1.963,0.629-4.036,1.006-6.184,1.096V53.163z M39.868,51.558c1.69-0.71,3.259-1.646,4.696-2.744l1.537,1.83
		c-1.646,1.282-3.463,2.354-5.414,3.167L39.868,51.558z M31.627,51.214c-10.681,0-19.371-8.689-19.371-19.371
		c0-10.681,8.69-19.371,19.371-19.371c10.682,0,19.371,8.689,19.371,19.371C50.998,42.524,42.309,51.214,31.627,51.214z
		 M8.018,32.012c0-1.113,0.083-2.206,0.233-3.278l2.198,0.388c-0.114,0.893-0.193,1.797-0.193,2.721
		c0,0.923,0.079,1.825,0.192,2.718l-2.24,0.395C8.087,33.99,8.018,33.01,8.018,32.012z M10.791,27.151l-2.178-0.385
		c0.467-2.051,1.199-4.001,2.163-5.811l1.882,1.086C11.828,23.639,11.196,25.352,10.791,27.151z M10.79,36.529
		c0.405,1.801,1.037,3.513,1.865,5.11l-2.015,1.164c-0.947-1.834-1.663-3.805-2.104-5.877L10.79,36.529z M39.867,12.128l0.711-1.958
		c1.923,0.791,3.719,1.828,5.349,3.073l-1.365,1.628C43.125,13.773,41.558,12.837,39.867,12.128z M37.99,11.44
		c-1.704-0.533-3.506-0.831-5.362-0.917V8.428c2.106,0.088,4.143,0.451,6.072,1.058L37.99,11.44z M30.628,10.523
		c-1.856,0.086-3.658,0.384-5.361,0.916l-0.711-1.953c1.93-0.607,3.966-0.969,6.073-1.058V10.523z M23.389,12.127
		c-1.69,0.709-3.258,1.645-4.695,2.743l-1.365-1.627c1.63-1.245,3.425-2.282,5.348-3.072L23.389,12.127z M50.598,22.043l1.882-1.087
		c0.964,1.81,1.695,3.76,2.162,5.811l-2.179,0.385C52.058,25.353,51.426,23.641,50.598,22.043z M52.463,36.531l2.255,0.396
		c-0.44,2.072-1.156,4.042-2.103,5.875l-2.017-1.163C51.427,40.043,52.059,38.331,52.463,36.531z M51.464,19.234l-1.87,1.081
		c-0.987-1.533-2.166-2.924-3.5-4.156l1.373-1.638C48.996,15.907,50.339,17.494,51.464,19.234z M15.789,14.52l1.374,1.637
		c-1.334,1.231-2.514,2.623-3.501,4.155l-1.87-1.08C12.917,17.492,14.259,15.906,15.789,14.52z M11.631,44.541l2.028-1.172
		c0.987,1.534,2.167,2.926,3.501,4.158l-1.532,1.826C14.093,47.937,12.748,46.317,11.631,44.541z M47.627,49.353l-1.532-1.826
		c1.334-1.231,2.513-2.624,3.5-4.156l2.029,1.17C50.507,46.316,49.162,47.936,47.627,49.353z"/>
	<path d="M45.495,28.567c-0.735-1.189-2.17-1.959-3.649-1.959c-0.472,0-0.926,0.079-1.412,0.264l-5.554,3.03
		c-0.607,0.224-1.047,0.563-1.325,0.973c-0.239-0.436-0.609-0.788-1.064-0.993c0.293-0.173,0.574-0.416,0.828-0.732l6.111-7.582
		c0.603-0.744,0.826-1.617,0.639-2.453c-0.192-0.838-0.772-1.527-1.627-1.933c-0.08-0.042-2.027-1.021-4.818-1.021l-0.342,0.006
		c-3.012,0.087-5.042,1.714-5.075,1.747c-1.598,0.99-2.372,3.229-1.694,5.062l3.029,5.552c0.237,0.649,0.609,1.102,1.053,1.372
		c-0.498,0.233-0.898,0.637-1.122,1.139c-0.136-0.16-0.292-0.316-0.475-0.464l-7.582-6.113c-0.568-0.458-1.218-0.7-1.876-0.7
		c-1.069,0-2.009,0.636-2.512,1.691c-0.044,0.087-1.102,2.19-1.016,5.159c0.088,3.012,1.716,5.043,1.747,5.077
		c0.737,1.188,2.17,1.957,3.652,1.957c0.472,0,0.923-0.08,1.411-0.265l5.553-3.028c0.634-0.233,1.089-0.59,1.363-1.021
		c0.305,0.404,0.738,0.702,1.241,0.834c-0.122,0.113-0.241,0.231-0.354,0.371l-6.113,7.582c-0.599,0.744-0.825,1.617-0.634,2.455
		c0.188,0.838,0.77,1.525,1.623,1.933c0.083,0.042,2.028,1.019,4.82,1.019l0.341-0.004c3.011-0.088,5.043-1.715,5.076-1.746
		c1.597-0.99,2.371-3.231,1.695-5.062l-3.031-5.554c-0.283-0.77-0.742-1.292-1.302-1.52c0.209-0.193,0.38-0.423,0.506-0.682
		c0.168,0.253,0.373,0.498,0.652,0.724l7.582,6.11c0.568,0.459,1.218,0.702,1.876,0.702c1.066,0,2.01-0.639,2.51-1.689
		c0.045-0.088,1.102-2.189,1.016-5.162C47.156,30.63,45.527,28.6,45.495,28.567z M27.421,22.564
		c-0.493-1.344,0.096-3.048,1.365-3.839c0.018-0.014,1.85-1.482,4.524-1.56l0.312-0.004c2.538,0,4.346,0.901,4.377,0.917
		c0.582,0.277,0.973,0.725,1.093,1.256c0.121,0.534-0.034,1.104-0.44,1.606l-6.113,7.582c-0.754,0.938-1.61,0.869-2.087-0.406
		L27.421,22.564z M27.964,33.443l-5.554,3.027c-0.31,0.115-0.646,0.174-0.998,0.174c-1.126,0-2.251-0.596-2.84-1.535
		c-0.013-0.02-1.481-1.851-1.559-4.527c-0.078-2.702,0.896-4.657,0.912-4.688c0.342-0.72,0.929-1.133,1.614-1.133
		c0.426,0,0.858,0.166,1.251,0.482l7.582,6.11c0.47,0.38,0.705,0.806,0.646,1.165C28.959,32.878,28.6,33.204,27.964,33.443z
		 M30.273,31.963c0-0.708,0.577-1.285,1.285-1.285s1.285,0.576,1.285,1.285c0,0.709-0.576,1.285-1.285,1.285
		S30.273,32.672,30.273,31.963z M36.521,41.121c0.492,1.342-0.095,3.048-1.363,3.837c-0.018,0.017-1.848,1.483-4.525,1.56
		l-0.312,0.006c-2.537,0-4.348-0.902-4.377-0.916c-0.584-0.28-0.971-0.727-1.092-1.26c-0.121-0.531,0.036-1.102,0.44-1.604
		l6.112-7.582c0.342-0.424,0.716-0.657,1.051-0.657c0.408,0,0.775,0.362,1.038,1.062L36.521,41.121z M45.329,38.357
		c-0.343,0.721-0.931,1.134-1.613,1.134c-0.428,0-0.86-0.165-1.248-0.48l-7.582-6.112c-0.471-0.379-0.708-0.803-0.649-1.165
		c0.062-0.358,0.421-0.685,1.056-0.924l5.554-3.03c0.309-0.113,0.646-0.17,1-0.17c1.125,0,2.25,0.596,2.836,1.534
		c0.016,0.018,1.482,1.848,1.56,4.525C46.318,36.372,45.346,38.327,45.329,38.357z"/>
</g>
</svg>
