<?xml version="1.0" encoding="iso-8859-1"?>
<!-- Generator: Adobe Illustrator 17.0.2, SVG Export Plug-In . SVG Version: 6.00 Build 0)  -->
<!DOCTYPE svg PUBLIC "-//W3C//DTD SVG 1.1//EN" "http://www.w3.org/Graphics/SVG/1.1/DTD/svg11.dtd">
<svg version="1.1" id="Layer_1" xmlns="http://www.w3.org/2000/svg" xmlns:xlink="http://www.w3.org/1999/xlink" x="0px" y="0px"
	 width="64px" height="64px" viewBox="0 0 64 64" style="enable-background:new 0 0 64 64;" xml:space="preserve">
<g>
	<path d="M60.25,28v-9.914c0-3.584-2.916-6.5-6.5-6.5H10.417c-3.584,0-6.5,2.916-6.5,6.5V28c0,3.584,2.916,6.5,6.5,6.5H53.75
		C57.334,34.5,60.25,31.584,60.25,28z M57.25,28c0,1.93-1.57,3.5-3.5,3.5H10.417c-1.93,0-3.5-1.57-3.5-3.5v-9.914
		c0-1.93,1.57-3.5,3.5-3.5H53.75c1.93,0,3.5,1.57,3.5,3.5V28z"/>
	<path d="M51.305,21.604H12.695c-2.217,0-4.021,1.804-4.021,4.021s1.804,4.021,4.021,4.021h38.609c2.217,0,4.021-1.804,4.021-4.021
		S53.522,21.604,51.305,21.604z M51.305,26.646H12.695c-0.563,0-1.021-0.458-1.021-1.021s0.458-1.021,1.021-1.021h38.609
		c0.563,0,1.021,0.458,1.021,1.021S51.868,26.646,51.305,26.646z"/>
	<path d="M36.625,19.875h4c0.829,0,1.5-0.672,1.5-1.5s-0.671-1.5-1.5-1.5h-4c-0.829,0-1.5,0.672-1.5,1.5
		S35.796,19.875,36.625,19.875z"/>
	<path d="M46.625,19.875h4c0.829,0,1.5-0.672,1.5-1.5s-0.671-1.5-1.5-1.5h-4c-0.829,0-1.5,0.672-1.5,1.5
		S45.796,19.875,46.625,19.875z"/>
	<path d="M18.507,39.795c1.721-0.885,0.203-3.474-1.514-2.59c-2.763,1.422-3.941,3.752-2.914,6.748
		c1.011,2.953,4.357,6.198,0.539,8.377c-1.68,0.959-0.169,3.551,1.514,2.59c2.776-1.584,4.016-3.979,3.001-7.093
		C18.222,45.031,14.766,41.72,18.507,39.795z"/>
	<path d="M34.507,39.795c1.721-0.885,0.203-3.474-1.514-2.59c-2.763,1.422-3.941,3.752-2.914,6.748
		c1.011,2.953,4.357,6.198,0.539,8.377c-1.68,0.959-0.169,3.551,1.514,2.59c2.776-1.584,4.016-3.979,3.001-7.093
		C34.222,45.031,30.766,41.72,34.507,39.795z"/>
	<path d="M50.507,39.795c1.721-0.885,0.203-3.474-1.514-2.59c-2.763,1.422-3.941,3.752-2.914,6.748
		c1.011,2.953,4.357,6.198,0.539,8.377c-1.68,0.959-0.169,3.551,1.514,2.59c2.776-1.584,4.016-3.979,3.001-7.093
		C50.222,45.031,46.766,41.72,50.507,39.795z"/>
</g>
</svg>
