<?xml version="1.0" encoding="iso-8859-1"?>
<!-- Generator: Adobe Illustrator 17.0.2, SVG Export Plug-In . SVG Version: 6.00 Build 0)  -->
<!DOCTYPE svg PUBLIC "-//W3C//DTD SVG 1.1//EN" "http://www.w3.org/Graphics/SVG/1.1/DTD/svg11.dtd">
<svg version="1.1" id="Capa_1" xmlns="http://www.w3.org/2000/svg" xmlns:xlink="http://www.w3.org/1999/xlink" x="0px" y="0px"
	 width="64px" height="64px" viewBox="0 0 64 64" style="enable-background:new 0 0 64 64;" xml:space="preserve">
<g>
	<path d="M54.47,21.108c-0.828,0-1.5,0.672-1.5,1.5v5.866h-1.676v-1.337c0-3.324-2.705-6.029-6.029-6.029
		c-1.805,0-3.423,0.802-4.529,2.063c-1.106-1.261-2.724-2.063-4.529-2.063s-3.423,0.802-4.529,2.063
		c-1.106-1.261-2.724-2.063-4.529-2.063s-3.423,0.802-4.529,2.063c-1.106-1.261-2.724-2.063-4.529-2.063
		c-3.324,0-6.029,2.705-6.029,6.029v1.337H9.03c-0.828,0-1.5,0.672-1.5,1.5s0.672,1.5,1.5,1.5h3.029v22.388
		c0,3.324,2.705,6.029,6.029,6.029c1.805,0,3.423-0.802,4.529-2.063c1.106,1.261,2.724,2.063,4.529,2.063s3.423-0.802,4.529-2.063
		c1.106,1.261,2.724,2.063,4.529,2.063s3.423-0.802,4.529-2.063c1.106,1.261,2.724,2.063,4.529,2.063
		c3.324,0,6.029-2.705,6.029-6.029V31.475h3.176c0.828,0,1.5-0.672,1.5-1.5v-7.366C55.97,21.78,55.298,21.108,54.47,21.108z
		 M48.294,31.475v22.388c0,1.67-1.359,3.029-3.029,3.029s-3.029-1.359-3.029-3.029V31.475v-3v-1.337c0-1.67,1.359-3.029,3.029-3.029
		s3.029,1.359,3.029,3.029v1.337V31.475z M39.235,53.862c0,1.67-1.359,3.029-3.029,3.029s-3.029-1.359-3.029-3.029V31.475v-3v-1.337
		c0-1.67,1.359-3.029,3.029-3.029s3.029,1.359,3.029,3.029v1.337v3V53.862z M30.177,53.862c0,1.67-1.359,3.029-3.029,3.029
		s-3.029-1.359-3.029-3.029V31.475v-3v-1.337c0-1.67,1.359-3.029,3.029-3.029s3.029,1.359,3.029,3.029v1.337v3V53.862z
		 M21.118,53.862c0,1.67-1.359,3.029-3.029,3.029s-3.029-1.359-3.029-3.029V31.475v-3v-1.337c0-1.67,1.359-3.029,3.029-3.029
		s3.029,1.359,3.029,3.029v1.337v3V53.862z"/>
	<path d="M21.7,3.273c-1.352,1.613-1.908,3.321-1.238,5.371c0.661,2.023,2.692,3.878,1.071,5.962
		c-1.172,1.507,0.935,3.647,2.121,2.121c1.335-1.716,1.912-3.467,1.238-5.597c-0.608-1.922-2.688-3.808-1.071-5.736
		C25.055,3.922,22.945,1.788,21.7,3.273z"/>
	<path d="M32.655,16.727c1.335-1.716,1.912-3.467,1.238-5.597c-0.608-1.922-2.688-3.808-1.071-5.736
		c1.234-1.472-0.877-3.606-2.121-2.121c-1.352,1.613-1.908,3.321-1.238,5.371c0.661,2.023,2.692,3.878,1.071,5.962
		C29.361,16.113,31.468,18.253,32.655,16.727z"/>
	<path d="M39.7,3.273c-1.352,1.613-1.908,3.321-1.238,5.371c0.661,2.023,2.692,3.878,1.071,5.962
		c-1.172,1.507,0.935,3.647,2.121,2.121c1.335-1.716,1.912-3.467,1.238-5.597c-0.608-1.922-2.688-3.808-1.071-5.736
		C43.055,3.922,40.945,1.788,39.7,3.273z"/>
</g>
</svg>
