<?xml version="1.0" encoding="utf-8"?>


<!-- The icon can be used freely in both personal and commercial projects with no attribution required, but always appreciated. 
You may NOT sub-license, resell, rent, redistribute or otherwise transfer the icon without express written permission from iconmonstr.com -->


<!DOCTYPE svg PUBLIC "-//W3C//DTD SVG 1.1//EN" "http://www.w3.org/Graphics/SVG/1.1/DTD/svg11.dtd">

<svg version="1.1" xmlns="http://www.w3.org/2000/svg" xmlns:xlink="http://www.w3.org/1999/xlink" x="0px" y="0px"

	 width="512px" height="512px" viewBox="0 0 512 512" enable-background="new 0 0 512 512" xml:space="preserve">

<path id="stumbleupon-circle-outline-icon" d="M256.417,90c44.34,0,86.026,17.267,117.38,48.62

	c31.354,31.354,48.62,73.04,48.62,117.38c0,44.34-17.267,86.026-48.62,117.38c-31.354,31.353-73.04,48.62-117.38,48.62

	s-86.026-17.268-117.38-48.62c-31.354-31.354-48.62-73.04-48.62-117.38c0-44.34,17.267-86.026,48.62-117.38

	C170.391,107.267,212.077,90,256.417,90 M256.417,50c-113.771,0-206,92.229-206,206s92.229,206,206,206s206-92.229,206-206

	S370.188,50,256.417,50L256.417,50z M269.777,229.61l15.393,8.571l24.36-8.238v-16.508c0-28.468-23.81-50.635-52.114-50.635

	c-28.201,0-52.113,20.725-52.113,50.327c0,29.602,0,75.428,0,75.428c0,6.826-5.535,12.361-12.362,12.361

	c-6.826,0-12.362-5.535-12.362-12.361V256.59h-39.964c0,0,0,32.014,0,32.391c0,28.84,23.378,52.22,52.22,52.22

	c28.587,0,51.816-22.979,52.22-51.471v-74.496c0-6.828,5.535-12.362,12.362-12.362s12.361,5.535,12.361,12.362V229.61z

	 M334.254,256.59v33.456c0,6.827-5.536,12.362-12.362,12.362c-6.827,0-12.361-5.535-12.361-12.362v-32.819l-24.36,8.236

	l-15.393-8.569v32.55c0.251,28.624,23.537,51.757,52.221,51.757c28.841,0,52.22-23.38,52.22-52.22c0-0.377,0-32.391,0-32.391

	H334.254z"/>

</svg>

