<?xml version="1.0" encoding="utf-8"?>

<!-- License Agreement at http://iconmonstr.com/license/ -->

<!DOCTYPE svg PUBLIC "-//W3C//DTD SVG 1.1//EN" "http://www.w3.org/Graphics/SVG/1.1/DTD/svg11.dtd">
<svg version="1.1" xmlns="http://www.w3.org/2000/svg" xmlns:xlink="http://www.w3.org/1999/xlink" x="0px" y="0px"
	 width="512px" height="512px" viewBox="0 0 512 512" enable-background="new 0 0 512 512" xml:space="preserve">
<path id="retweet-4-icon" d="M373.38,138.62c64.872,64.874,64.88,169.878,0,234.76c-64.874,64.872-169.878,64.88-234.76,0
	c-64.872-64.874-64.88-169.878,0-234.76C203.492,73.749,308.498,73.739,373.38,138.62z M256,50C142.229,50,50,142.229,50,256
	c0,113.771,92.229,206,206,206s206-92.229,206-206C462,142.229,369.771,50,256,50z M196.309,224.716v76.481h72.285l32.355,32.357
	H163.953V224.716h-28.224l44.05-44.27l44.273,44.27H196.309z M354.014,288.959V180.446H217.006l32.355,32.356h72.297v76.157h-27.71
	l44.272,44.271l44.05-44.271H354.014z"/>
</svg>
