<?xml version="1.0" encoding="utf-8"?>


<!-- The icon can be used freely in both personal and commercial projects with no attribution required, but always appreciated. 
You may NOT sub-license, resell, rent, redistribute or otherwise transfer the icon without express written permission from iconmonstr.com -->


<!DOCTYPE svg PUBLIC "-//W3C//DTD SVG 1.1//EN" "http://www.w3.org/Graphics/SVG/1.1/DTD/svg11.dtd">

<svg version="1.1" xmlns="http://www.w3.org/2000/svg" xmlns:xlink="http://www.w3.org/1999/xlink" x="0px" y="0px"

	 width="512px" height="512px" viewBox="0 0 512 512" enable-background="new 0 0 512 512" xml:space="preserve">

<path id="feedburner-circle-outline-icon" d="M256.417,90c44.34,0,86.026,17.267,117.38,48.62

	c31.354,31.354,48.62,73.04,48.62,117.38c0,44.34-17.267,86.026-48.62,117.38c-31.354,31.353-73.04,48.62-117.38,48.62

	s-86.026-17.268-117.38-48.62c-31.354-31.354-48.62-73.04-48.62-117.38c0-44.34,17.267-86.026,48.62-117.38

	C170.391,107.267,212.077,90,256.417,90 M256.417,50c-113.771,0-206,92.229-206,206s92.229,206,206,206s206-92.229,206-206

	S370.188,50,256.417,50L256.417,50z M330.45,281.483L330.45,281.483c8.058-33.756-8.261-61.452-45.677-83.906

	c7.514,45.692-23.402,60.104-43.842,51.688c16.188-26.445,19.492-47.079,7.571-66.024c-11.921-18.946-17.84-29.553-7.92-51.497

	c-45.68,45.355-63.406,94.902-53.354,148.615h0.004c-21.498,8.174-35.029,20.043-35.029,33.254

	c0,24.653,47.104,44.639,105.214,44.639c58.106,0,105.211-19.985,105.211-44.639C362.629,300.995,350.289,289.602,330.45,281.483z

	 M265.016,329.776c-49.772,5.534-83.352-46.226-43.671-103.04c-17.437,73.049,70.342,82.066,75.15,12.325

	C332.87,278.441,310.859,324.679,265.016,329.776z"/>

</svg>

