<?xml version="1.0" encoding="utf-8"?>

<!-- License Agreement at http://iconmonstr.com/license/ -->

<!DOCTYPE svg PUBLIC "-//W3C//DTD SVG 1.1//EN" "http://www.w3.org/Graphics/SVG/1.1/DTD/svg11.dtd">
<svg version="1.1" xmlns="http://www.w3.org/2000/svg" xmlns:xlink="http://www.w3.org/1999/xlink" x="0px" y="0px"
	 width="512px" height="512px" viewBox="0 0 512 512" style="enable-background:new 0 0 512 512;" xml:space="preserve">
<path id="calculator-4-icon" d="M245.501,301.666v50c0,9.665-7.835,17.5-17.5,17.5s-17.5-7.835-17.5-17.5v-50
	c0-9.665,7.835-17.5,17.5-17.5S245.501,292.001,245.501,301.666z M168.001,284.166c-9.665,0-17.5,7.835-17.5,17.5v50
	c0,9.665,7.835,17.5,17.5,17.5s17.5-7.835,17.5-17.5v-50C185.501,292.001,177.666,284.166,168.001,284.166z M365.501,161
	c0-9.665-7.835-17.5-17.5-17.5s-17.5,7.835-17.5,17.5v50c0,9.665,7.835,17.5,17.5,17.5s17.5-7.835,17.5-17.5V161z M288.001,143.5
	c-9.665,0-17.5,7.835-17.5,17.5v50c0,9.665,7.835,17.5,17.5,17.5s17.5-7.835,17.5-17.5v-50
	C305.501,151.335,297.666,143.5,288.001,143.5z M305.501,301.666c0-9.665-7.835-17.5-17.5-17.5s-17.5,7.835-17.5,17.5v50
	c0,9.665,7.835,17.5,17.5,17.5s17.5-7.835,17.5-17.5V301.666z M462,125v262c0,41.421-33.578,75-75,75H125c-41.422,0-75-33.579-75-75
	V125c0-41.422,33.578-75,75-75h262C428.422,50,462,83.578,462,125z M422,130c0-22.092-17.908-40-40-40H130
	c-22.092,0-40,17.908-40,40v41h155.501v30H90v110.666h34.501v30H90V382c0,22.092,17.908,40,40,40h252c22.092,0,40-17.908,40-40
	v-40.334h-90.499v-30H422V201h-31.499v-30H422V130z"/>
</svg>
