<?xml version="1.0" encoding="utf-8"?>

<!-- License Agreement at http://iconmonstr.com/license/ -->

<!DOCTYPE svg PUBLIC "-//W3C//DTD SVG 1.1//EN" "http://www.w3.org/Graphics/SVG/1.1/DTD/svg11.dtd">
<svg version="1.1" xmlns="http://www.w3.org/2000/svg" xmlns:xlink="http://www.w3.org/1999/xlink" x="0px" y="0px"
	 width="512px" height="512px" viewBox="0 0 512 512" style="enable-background:new 0 0 512 512;" xml:space="preserve">
<path id="flask-19-icon" d="M233.031,126.967c0-9.444,7.654-17.101,17.1-17.101h104.742c9.445,0,17.102,7.656,17.102,17.101
	c0,9.445-7.656,17.102-17.102,17.102H250.131C240.686,144.068,233.031,136.412,233.031,126.967z M353.377,212.549v-42.972h-34.182
	l0.123,43.113c0,19.745,4.254,34.766,10.498,47.246h-54.223c6.178-12.381,10.377-27.376,10.377-47.246l-0.121-43.113h-34.223v42.972
	c0,61.228-60.138,61.266-60.138,138.438c0,61.312,49.702,111.013,111.013,111.013c61.312,0,111.014-49.701,111.014-111.013
	C413.516,274.911,353.377,272.969,353.377,212.549z M283.943,294.164c-33.574,40.762-30.099,87.376,7.895,121.952
	C224.673,402.267,222.214,317.086,283.943,294.164z M157.268,84.201H262.01c9.445,0,17.102-7.656,17.102-17.101
	S271.455,50,262.01,50H157.268c-9.444,0-17.101,7.656-17.101,17.101S147.823,84.201,157.268,84.201z M161.479,351.04
	c-17.457-14.092-28.652-35.646-28.652-59.776c0-57.813,60.139-63.24,60.139-138.439l-0.123-43.113h-34.222v42.972
	c0,61.228-60.137,61.266-60.137,138.438c0,46.714,28.854,86.682,69.711,103.069C163.784,380.425,161.485,365.911,161.479,351.04z"/>
</svg>
