<?xml version="1.0" encoding="utf-8"?>

<!-- License Agreement at http://iconmonstr.com/license/ -->

<!DOCTYPE svg PUBLIC "-//W3C//DTD SVG 1.1//EN" "http://www.w3.org/Graphics/SVG/1.1/DTD/svg11.dtd">
<svg version="1.1" xmlns="http://www.w3.org/2000/svg" xmlns:xlink="http://www.w3.org/1999/xlink" x="0px" y="0px"
	 width="512px" height="512px" viewBox="0 0 512 512" style="enable-background:new 0 0 512 512;" xml:space="preserve">
<path id="drop-29-icon" d="M409.31,298.648c-3.453,55.256-39.38,63.805-39.38,101.34c0,24.762,20.135,44.846,44.979,44.846
	c25.364,0,47.091-23.655,47.091-56.379C462,361.883,447.684,329.361,409.31,298.648z M404.314,368.689
	c-0.52-9.221,11.617-14.937,15.104-31.919c2.801,3.989,6.32,10.931,6.707,18.474C427.281,377.323,405.002,382.135,404.314,368.689z
	 M369.059,307.768c-39.766-88.624-145.883-36.403-205.648-75.934c-30.209-20-44.543-49.271-43.403-79.647
	c-20.989-5.062-45.264-8.817-70.008-10.905l19.497-28.139c71.03,13.831,144.609,40.36,192.655,76.923
	c-18.659-33.269-77.149-71.802-125.732-87.51c19.463-24.199,46.102-35.39,74.551-35.39
	C295.011,67.166,400.727,164.215,369.059,307.768z"/>
</svg>
