<?xml version="1.0" encoding="utf-8"?>

<!-- The icon can be used freely in both personal and commercial projects with no attribution required, but always appreciated. 
You may NOT sub-license, resell, rent, redistribute or otherwise transfer the icon without express written permission from iconmonstr.com -->

<!DOCTYPE svg PUBLIC "-//W3C//DTD SVG 1.1//EN" "http://www.w3.org/Graphics/SVG/1.1/DTD/svg11.dtd">
<svg version="1.1" xmlns="http://www.w3.org/2000/svg" xmlns:xlink="http://www.w3.org/1999/xlink" x="0px" y="0px"
	 width="512px" height="512px" viewBox="0 0 512 512" enable-background="new 0 0 512 512" xml:space="preserve">
<path id="virus-scan-4-icon" d="M256,50C142.23,50,50,142.23,50,256s92.23,206,206,206s206-92.23,206-206S369.77,50,256,50z
	 M256.001,124.6c72.568,0,131.399,58.829,131.399,131.401c0,72.568-58.831,131.398-131.399,131.398
	c-72.572,0-131.401-58.83-131.401-131.398C124.6,183.429,183.429,124.6,256.001,124.6z M70,256
	c0-49.682,19.348-96.391,54.479-131.521S206.318,70,256,70v34.6c-83.482,0.001-151.4,67.918-151.4,151.401
	c0,41.807,17.035,79.709,44.526,107.134l-24.269,24.757c-0.125-0.125-0.254-0.245-0.379-0.37C89.348,352.391,70,305.682,70,256z
	 M331.344,240.702c-3.435,0-6.603,1.133-9.154,3.043c-5.237,3.92-11.608,6.053-18.151,6.053c-5.336,0-10.18-3.119-12.387-7.975
	c-2.548-5.594-1.137-11.566,2.7-15.404c4.643-4.643,10.619-7.623,17.118-8.555c3.154-0.455,6.196-1.895,8.622-4.322
	c5.976-5.973,5.976-15.66,0-21.635c-5.975-5.973-15.659-5.973-21.633,0c-2.43,2.428-3.869,5.469-4.322,8.623
	c-0.931,6.477-3.927,12.49-8.555,17.115c-3.906,3.908-9.788,5.076-14.892,2.955c-0.018-0.006-0.036-0.014-0.053-0.021
	c-5.103-2.111-8.436-7.092-8.436-12.613c0-6.566,2.119-12.898,6.054-18.154c1.91-2.551,3.042-5.721,3.042-9.154
	c0-8.449-6.849-15.297-15.298-15.297c-8.448,0-15.298,6.848-15.298,15.297c0,3.434,1.132,6.604,3.042,9.154
	c3.922,5.238,6.054,11.607,6.054,18.15c0,5.523-3.331,10.506-8.436,12.617c-0.017,0.008-0.035,0.016-0.052,0.021
	c-5.102,2.121-10.984,0.955-14.891-2.951c-4.643-4.645-7.623-10.619-8.557-17.119c-0.453-3.154-1.894-6.195-4.321-8.623
	c-5.975-5.973-15.659-5.973-21.634,0c-5.976,5.975-5.976,15.662,0,21.635c2.427,2.428,5.468,3.867,8.622,4.322
	c6.477,0.93,12.489,3.928,17.116,8.555c3.907,3.908,5.074,9.789,2.954,14.891c-0.007,0.018-0.014,0.035-0.021,0.055
	c-2.11,5.102-7.095,8.434-12.616,8.434c-6.565,0-12.896-2.117-18.152-6.053c-2.552-1.91-5.72-3.043-9.154-3.043
	c-8.447,0-15.297,6.85-15.297,15.299c0,8.447,6.85,15.297,15.297,15.297c3.435,0,6.603-1.133,9.154-3.041
	c5.237-3.922,11.608-6.053,18.151-6.053c5.522,0,10.506,3.33,12.617,8.434c0.007,0.018,0.015,0.035,0.021,0.053
	c2.119,5.102,0.953,10.984-2.952,14.891c-4.643,4.643-10.619,7.623-17.118,8.555c-3.154,0.455-6.195,1.895-8.622,4.322
	c-5.976,5.975-5.976,15.66,0,21.635c5.975,5.973,15.659,5.973,21.634,0c2.428-2.428,3.868-5.469,4.321-8.625
	c0.932-6.475,3.929-12.486,8.555-17.113c3.907-3.908,9.788-5.074,14.893-2.955c0.017,0.008,0.034,0.014,0.052,0.021
	c5.102,2.111,8.436,7.094,8.436,12.615c0,6.564-2.119,12.898-6.054,18.154c-1.91,2.551-3.042,5.719-3.042,9.152
	c0,8.449,6.85,15.297,15.298,15.297c8.449,0,15.298-6.848,15.298-15.297c0-3.443-1.139-6.619-3.059-9.176
	c-3.91-5.203-6.037-11.539-6.037-18.047c0-5.512,3.313-10.754,8.921-12.873c5.01-1.9,10.667-0.686,14.456,3.104
	c4.643,4.643,7.624,10.619,8.558,17.119c0.453,3.154,1.895,6.195,4.322,8.623c5.974,5.973,15.658,5.973,21.633,0
	c5.976-5.975,5.976-15.66,0-21.635c-2.434-2.434-5.484-3.875-8.65-4.324c-6.446-0.916-12.431-3.895-17.034-8.5
	c-3.933-3.932-5.113-9.854-2.987-14.992c0,0,0-0.002,0.001-0.004c2.11-5.104,7.094-8.434,12.615-8.434
	c6.565,0,12.896,2.115,18.153,6.053c2.552,1.908,5.72,3.041,9.154,3.041c8.447,0,15.297-6.85,15.297-15.297
	C346.641,247.552,339.791,240.702,331.344,240.702z M241.16,276.194c-4.132,0-7.48-3.35-7.48-7.48s3.349-7.48,7.48-7.48
	c4.13,0,7.479,3.35,7.479,7.48S245.29,276.194,241.16,276.194z M250.692,252.454c-6.479,0-11.732-5.254-11.732-11.734
	s5.253-11.732,11.732-11.732c6.48,0,11.733,5.252,11.733,11.732S257.173,252.454,250.692,252.454z M272.803,274.874
	c-5.487,0-9.937-4.449-9.937-9.936c0-5.488,4.449-9.938,9.937-9.938s9.937,4.449,9.937,9.938
	C282.739,270.425,278.29,274.874,272.803,274.874z"/>
</svg>
