<?xml version="1.0" encoding="utf-8"?>

<!-- License Agreement at http://iconmonstr.com/license/ -->

<!DOCTYPE svg PUBLIC "-//W3C//DTD SVG 1.1//EN" "http://www.w3.org/Graphics/SVG/1.1/DTD/svg11.dtd">
<svg version="1.1" xmlns="http://www.w3.org/2000/svg" xmlns:xlink="http://www.w3.org/1999/xlink" x="0px" y="0px"
	 width="512px" height="512px" viewBox="0 0 512 512" enable-background="new 0 0 512 512" xml:space="preserve">
<path id="infinity-5-icon" d="M212.446,178.135c8.466,7.246,16.344,15.297,23.92,23.383l-26.085,33.17
	c-7.376-8.773-14.601-16.795-22.146-23.403L212.446,178.135z M192.143,163.447c-12.896-7.575-27.265-12.599-43.814-13.152v42.907
	c6.718,0.357,12.928,1.889,18.786,4.375L192.143,163.447z M109.097,206.642c4.095-3.892,8.843-7.011,14.173-9.278v-44.722
	c-18.282,4.134-33.935,13.429-46.054,26.537L109.097,206.642z M461.816,269.532h-41.741c-0.82,5.557-2.166,10.751-3.994,15.534
	l32.683,28.152C455.704,300.429,460.203,285.648,461.816,269.532z M402.091,306.09c-3.735,3.39-7.973,6.18-12.693,8.271v44.849
	c17.628-4.121,32.78-13.062,44.646-25.597L402.091,306.09z M364.338,361.721v-42.882c-6.363-0.256-12.292-1.536-17.893-3.629
	l-25.335,34.547C333.78,356.756,347.956,361.313,364.338,361.721z M62.712,199.76c-6.924,13.095-11.316,28.23-12.712,44.712h41.667
	c0.727-5.889,2.014-11.4,3.845-16.459L62.712,199.76z M324.822,302.321c-8.007-6.552-15.488-14.572-22.884-23.193l-26.208,32.743
	c7.806,8.199,15.945,16.355,24.757,23.634L324.822,302.321z M366.725,193.112c30.325,0,49.79,20.443,53.608,51.361H462
	c-4.613-54.47-41.935-94.239-95.275-94.239c-104.61,0-140.74,168.655-221.449,168.655c-29.668,0-48.952-19.56-53.351-49.356H50.184
	c5.351,53.439,42.407,92.234,95.092,92.234C250.041,361.767,291.138,193.112,366.725,193.112z"/>
</svg>
