<?xml version="1.0" encoding="utf-8"?>

<!-- License Agreement at http://iconmonstr.com/license/ -->

<!DOCTYPE svg PUBLIC "-//W3C//DTD SVG 1.1//EN" "http://www.w3.org/Graphics/SVG/1.1/DTD/svg11.dtd">
<svg version="1.1" xmlns="http://www.w3.org/2000/svg" xmlns:xlink="http://www.w3.org/1999/xlink" x="0px" y="0px"
	 width="512px" height="512px" viewBox="0 0 512 512" enable-background="new 0 0 512 512" xml:space="preserve">
<path id="loading-8-icon" d="M50.97,236c4.035-41.876,20.599-80.088,45.91-110.835l28.439,28.439
	C106.525,177.492,94.792,205.819,91.19,236H50.97z M275.999,50.969V91.19c30.181,3.602,58.508,15.335,82.396,34.129l28.44-28.44
	C356.087,71.568,317.875,55.004,275.999,50.969z M153.604,125.319c23.888-18.794,52.215-30.527,82.395-34.129V50.97
	c-41.875,4.035-80.087,20.6-110.834,45.91L153.604,125.319z M125.319,358.395C106.525,334.507,94.792,306.181,91.19,276H50.97
	c4.034,41.876,20.599,80.088,45.909,110.835L125.319,358.395z M358.396,386.681c-23.889,18.794-52.216,30.527-82.396,34.129v40.222
	c41.876-4.035,80.089-20.6,110.836-45.911L358.396,386.681z M386.681,153.604c18.794,23.888,30.527,52.215,34.129,82.396h40.221
	c-4.035-41.876-20.6-80.089-45.91-110.836L386.681,153.604z M420.81,276c-3.602,30.181-15.335,58.508-34.129,82.396l28.439,28.439
	c25.312-30.747,41.875-68.959,45.91-110.835H420.81z M235.999,420.81c-30.18-3.602-58.508-15.335-82.395-34.13l-28.44,28.44
	c30.747,25.311,68.96,41.875,110.835,45.91V420.81z"/>
</svg>
