<?xml version="1.0" encoding="utf-8"?>

<!-- License Agreement at http://iconmonstr.com/license/ -->

<!DOCTYPE svg PUBLIC "-//W3C//DTD SVG 1.1//EN" "http://www.w3.org/Graphics/SVG/1.1/DTD/svg11.dtd">
<svg version="1.1" xmlns="http://www.w3.org/2000/svg" xmlns:xlink="http://www.w3.org/1999/xlink" x="0px" y="0px"
	 width="512px" height="512px" viewBox="0 0 512 512" enable-background="new 0 0 512 512" xml:space="preserve">
<path id="battery-24-icon" d="M372,271.667v140H80v-140H372 M402,241.667H50v200h352V241.667z M422,386.667h24
	c8.837,0,16-7.164,16-16v-58c0-8.836-7.163-16-16-16h-24V386.667z M343.207,144.901c0.451,18.1-7.048,31.363-18.186,36.561
	c-33.843-10.906,4.729-82.379-77.58-106.061c18.52,24.477,14.639,64.307-15.105,77.732c-31.686-15.379-1.836-67.551-88.474-82.801
	c42.805,43.417-10.528,65.417,0.897,107.871c-14.594-2.574-26.476-21.707-19.832-42.352c-33.561,21.426-28.009,62.379-6.729,79.998
	h71.107c-13.462-16.77,16.883-32.605-7.104-51.379c40.047,2.611,25.047,37.611,48.626,40.734
	c16.346-5.955,23.167-21.115,13.151-36.047c25.52,4.174,31.52,31.424,24.924,46.691h70.637
	C363.817,196.483,361.416,166.257,343.207,144.901z"/>
</svg>
