<?xml version="1.0" encoding="utf-8"?>

<!-- The icon can be used freely in both personal and commercial projects with no attribution required, but always appreciated. 
You may NOT sub-license, resell, rent, redistribute or otherwise transfer the icon without express written permission from iconmonstr.com -->

<!DOCTYPE svg PUBLIC "-//W3C//DTD SVG 1.1//EN" "http://www.w3.org/Graphics/SVG/1.1/DTD/svg11.dtd">
<svg version="1.1" xmlns="http://www.w3.org/2000/svg" xmlns:xlink="http://www.w3.org/1999/xlink" x="0px" y="0px"
	 width="512px" height="512px" viewBox="0 0 512 512" enable-background="new 0 0 512 512" xml:space="preserve">
<path id="volume-control-2-icon" d="M341.084,194.839c-46.986-46.99-123.176-46.994-170.17,0
	c-46.992,46.989-46.992,123.179,0,170.17c46.988,46.988,123.178,46.996,170.17,0C388.078,318.018,388.078,241.828,341.084,194.839z
	 M225.022,273.259l-40.35-40.353l24.31-24.311l40.35,40.351L225.022,273.259z M431.885,292.424
	c-1.084,15.4-4.139,30.266-8.941,44.331l27.414,11.561c-2.783,7.909-6.033,15.597-9.723,23.031l-27.447-11.573
	c-6.561,12.862-14.654,24.815-24.039,35.622l21.076,21.077c-5.531,6.242-11.436,12.146-17.678,17.678l-38.795-38.794
	c32.758-27.782,53.588-69.217,53.588-115.433c0-83.449-67.891-151.34-151.34-151.34s-151.34,67.891-151.34,151.34
	c0,46.215,20.83,87.649,53.586,115.432l-42.332,42.332L98.236,420.01l24.615-24.615c-9.637-11.098-17.922-23.399-24.574-36.659
	l-27.52,11.39c-3.639-7.457-6.838-15.167-9.568-23.096l27.504-11.385c-4.586-13.738-7.521-28.224-8.578-43.221H50.389v-25h29.721
	c1.084-15.4,4.148-30.264,8.949-44.33l-27.416-11.561c2.783-7.91,6.033-15.598,9.723-23.031l27.438,11.57
	c6.561-12.864,14.652-24.822,24.037-35.629l-21.066-21.066c5.531-6.242,11.436-12.146,17.678-17.678l21.066,21.066
	c11.1-9.639,23.414-17.906,36.676-24.56l-11.393-27.525c7.457-3.638,15.166-6.838,23.096-9.568l11.381,27.5
	c13.74-4.587,28.225-7.524,43.223-8.579V74.312h25v29.72c15.4,1.084,30.264,4.147,44.33,8.95l11.561-27.417
	c7.91,2.783,15.598,6.034,23.031,9.723l-11.57,27.438c12.865,6.562,24.824,14.653,35.631,24.04l21.066-21.066
	c6.242,5.531,12.145,11.435,17.676,17.677l-21.064,21.065c9.637,11.1,17.906,23.415,24.559,36.676l27.525-11.393
	c3.637,7.457,6.838,15.166,9.568,23.096l-27.5,11.382c4.588,13.739,7.523,28.224,8.58,43.222h29.719v25H431.885z"/>
</svg>
