<?xml version="1.0" encoding="utf-8"?>

<!-- License Agreement at http://iconmonstr.com/license/ -->

<!DOCTYPE svg PUBLIC "-//W3C//DTD SVG 1.1//EN" "http://www.w3.org/Graphics/SVG/1.1/DTD/svg11.dtd">
<svg version="1.1" xmlns="http://www.w3.org/2000/svg" xmlns:xlink="http://www.w3.org/1999/xlink" x="0px" y="0px"
	 width="512px" height="512px" viewBox="0 0 512 512" style="enable-background:new 0 0 512 512;" xml:space="preserve">
<path id="disc-3-icon" d="M290.333,256c0,18.936-15.39,34.333-34.333,34.333c-18.927,0-34.333-15.397-34.333-34.333
	s15.407-34.333,34.333-34.333C274.943,221.667,290.333,237.064,290.333,256z M462,256c0,113.771-92.237,206-206,206
	S50,369.771,50,256c0-113.771,92.237-206,206-206S462,142.229,462,256z M208.021,384.867c-37.25-13.965-66.823-43.604-80.67-80.93
	l-17.502,2.188c15.373,45.113,50.947,80.754,95.992,96.236L208.021,384.867z M212.479,349.218
	c-21.827-10.234-39.463-27.87-49.689-49.706l-17.871,2.238c12.171,29.547,35.775,53.159,65.347,65.348L212.479,349.218z
	 M324.666,256c0-37.921-30.745-68.667-68.666-68.667S187.333,218.079,187.333,256s30.746,68.667,68.667,68.667
	S324.666,293.921,324.666,256z M367.114,210.25c-12.205-29.556-35.81-53.159-65.348-65.347l-2.247,17.871
	c21.828,10.235,39.464,27.879,49.724,49.715L367.114,210.25z M401.917,205.9c-15.49-44.811-50.964-80.209-95.825-95.59
	l-2.213,17.494c37.116,13.864,66.555,43.252,80.536,80.285L401.917,205.9z"/>
</svg>
