<?xml version="1.0" encoding="utf-8"?>

<!-- License Agreement at http://iconmonstr.com/license/ -->

<!DOCTYPE svg PUBLIC "-//W3C//DTD SVG 1.1//EN" "http://www.w3.org/Graphics/SVG/1.1/DTD/svg11.dtd">
<svg version="1.1" xmlns="http://www.w3.org/2000/svg" xmlns:xlink="http://www.w3.org/1999/xlink" x="0px" y="0px"
	 width="512px" height="512px" viewBox="0 0 512 512" style="enable-background:new 0 0 512 512;" xml:space="preserve">
<path id="language-7-icon" d="M248.167,282.744h-23.355L215,255.071h-39.293l-9.811,27.673h-22.618l41.446-108h21.845
	L248.167,282.744z M208.959,237.709l-13.466-38.634l-13.588,38.634H208.959z M352.684,222.66c1.059-4.083,1.684-7.145,2.271-10.166
	l-18.449-3.593c-0.304,1.547-0.854,4.473-1.846,8.385c-6.224-0.908-12.85-1.024-19.562-0.344c0.154-4.503,0.43-8.922,0.82-13.167
	h20.61v-17.472h-18.135c0.897-4.457,1.663-7.12,2.416-9.641l-18.012-5.381c-1.318,4.416-2.426,8.717-3.536,15.021h-20.563v17.472
	h18.32c-0.485,5.653-0.778,11.506-0.87,17.429c-44.12,16.217-32.894,64.429,2.078,61.257c23.506-2.137,39.21-19.898,48.414-41.738
	c9.51,5.489,13.488,14.718,9.905,23.246c-3.315,7.895-13.092,15.42-31.748,15.038v18.804c20.711,0.318,41.09-7.544,49.077-26.56
	C381.675,252.685,372.765,232.374,352.684,222.66z M328.419,235.502c-2.931,6.493-6.785,12.954-11.697,18.034
	c-0.754-5.415-1.274-11.351-1.551-17.681C319.649,235.269,324.173,235.158,328.419,235.502z M296.64,241.573
	c0.523,7.944,1.417,15.257,2.661,21.783C282.56,266.42,281.881,249.908,296.64,241.573z M50.918,446.647
	C67.583,413.5,86.083,368,85.135,336.276C62.684,309.204,50,274.316,50,238.783c0-100.183,97.19-173.431,206-173.431
	c108.132,0,206,72.698,206,173.431c0,104.894-115.562,202.853-274.119,163.914C159.083,420.5,95.583,438.5,50.918,446.647z
	 M256,105.469c-91.469,0-165.884,59.805-165.884,133.314c0,38.68,16.694,63.037,40.256,87.055
	c-4.789,35.662-16.289,66.662-16.289,66.662s34-9,72.629-31.56c147.805,39.194,235.171-46.094,235.171-122.157
	C421.883,165.273,347.468,105.469,256,105.469z"/>
</svg>
