<?xml version="1.0" encoding="utf-8"?>

<!-- License Agreement at http://iconmonstr.com/license/ -->

<!DOCTYPE svg PUBLIC "-//W3C//DTD SVG 1.1//EN" "http://www.w3.org/Graphics/SVG/1.1/DTD/svg11.dtd">
<svg version="1.1" xmlns="http://www.w3.org/2000/svg" xmlns:xlink="http://www.w3.org/1999/xlink" x="0px" y="0px"
	 width="512px" height="512px" viewBox="0 0 512 512" style="enable-background:new 0 0 512 512;" xml:space="preserve">
<path id="flask-16-icon" d="M174.884,70.008c0-11.05,8.957-20.008,20.008-20.008H317.44c11.051,0,20.009,8.958,20.009,20.008
	c0,11.051-8.958,20.009-20.009,20.009H194.892C183.841,90.017,174.884,81.059,174.884,70.008z M315.524,170.14v-50.277h-39.993
	l0.143,50.443c0,23.102,4.978,40.676,12.284,55.277h-63.442c7.229-14.485,12.143-32.03,12.143-55.277l-0.143-50.443h-40.04v50.277
	c0,71.637-70.361,71.682-70.361,161.975C126.114,403.849,184.266,462,256,462s129.886-58.151,129.886-129.886
	C385.886,243.104,315.524,240.831,315.524,170.14z M234.285,265.63c-39.282,47.691-35.214,102.23,9.237,142.686
	C164.939,392.111,162.062,292.448,234.285,265.63z"/>
</svg>
