<?xml version="1.0" encoding="utf-8"?>

<!-- License Agreement at http://iconmonstr.com/license/ -->

<!DOCTYPE svg PUBLIC "-//W3C//DTD SVG 1.1//EN" "http://www.w3.org/Graphics/SVG/1.1/DTD/svg11.dtd">
<svg version="1.1" xmlns="http://www.w3.org/2000/svg" xmlns:xlink="http://www.w3.org/1999/xlink" x="0px" y="0px"
	 width="512px" height="512px" viewBox="0 0 512 512" style="enable-background:new 0 0 512 512;" xml:space="preserve">
<path id="drop-26-icon" d="M427.666,376.167C427.666,423.576,350.818,462,256,462S84.334,423.576,84.334,376.167
	c0-23.169,18.457-44.175,48.331-59.614c5.13,10.428,11.483,20.117,19.011,28.868c-21.257,10.227-33.009,22.163-33.009,30.746
	c0,18.155,52.137,51.5,137.333,51.5s137.334-33.345,137.334-51.5c0-8.583-11.752-20.52-33.01-30.746
	c7.527-8.751,13.881-18.44,19.011-28.868C409.209,331.992,427.666,352.998,427.666,376.167z M359,256.973
	C359,313.334,312.915,359,256,359s-103-45.666-103-102.027C153,200.611,193.302,142.657,256,50
	C318.699,142.657,359,200.611,359,256.973z M217.375,186.596c0,30.612,51.5,22.397,51.5-27.929c0-17.167-7.209-33.411-13.227-42.749
	C242.991,134.526,217.375,165.573,217.375,186.596z"/>
</svg>
