<?xml version="1.0" encoding="utf-8"?>

<!-- License Agreement at http://iconmonstr.com/license/ -->

<!DOCTYPE svg PUBLIC "-//W3C//DTD SVG 1.1//EN" "http://www.w3.org/Graphics/SVG/1.1/DTD/svg11.dtd">
<svg version="1.1" xmlns="http://www.w3.org/2000/svg" xmlns:xlink="http://www.w3.org/1999/xlink" x="0px" y="0px"
	 width="512px" height="512px" viewBox="0 0 512 512" enable-background="new 0 0 512 512" xml:space="preserve">
<path id="loading-19-icon" d="M264.066,298.5h-36.174l85-85h36.174L264.066,298.5z M284.607,213.5h-36.215l-85,85h36.215
	L284.607,213.5z M220.107,213.5H184.81l-85,85h35.298L220.107,213.5z M120.31,213.5L50,283.81v14.69h21.524l85-85H120.31z
	 M420.435,298.5H462v-41.565L420.435,298.5z M92.024,213.5H50v42.024L92.024,213.5z M462,228.649V213.5h-21.148l-85,85h36.298
	L462,228.649z M412.566,213.5h-35.215l-85,85h35.215L412.566,213.5z"/>
</svg>
