<?xml version="1.0" encoding="utf-8"?>


<!-- The icon can be used freely in both personal and commercial projects with no attribution required, but always appreciated. 
You may NOT sub-license, resell, rent, redistribute or otherwise transfer the icon without express written permission from iconmonstr.com -->


<!DOCTYPE svg PUBLIC "-//W3C//DTD SVG 1.1//EN" "http://www.w3.org/Graphics/SVG/1.1/DTD/svg11.dtd">

<svg version="1.1" xmlns="http://www.w3.org/2000/svg" xmlns:xlink="http://www.w3.org/1999/xlink" x="0px" y="0px"

	 width="512px" height="512px" viewBox="0 0 512 512" enable-background="new 0 0 512 512" xml:space="preserve">

<path id="bar_chart_7_icon" d="M145.169,97.831l-32.687,32.686l-17.639-17.408l32.689-32.689L145.169,97.831z

	 M177.038,129.296l-17.636-17.412l-32.685,32.684l17.638,17.41L177.038,129.296z M158.591,176.028l99.451,98.16l47.869-45.256

	l73.409,70.303l-19.284,19.48l87.63,15.162l-16.775-87.334l-18.73,18.904L306.017,161.196l-49.362,46.705l-65.384-64.555

	L158.591,176.028z M63.354,461.884h108.134V237.417H63.354V461.884z M113.3,66.366l-16.459-16.25L63.873,82.538l16.735,16.52

	L113.3,66.366z M341.562,362.95v98.934h107.084V362.95H341.562z M201.933,461.884h108.135V306.606H201.933V461.884z"/>

</svg>

