<?xml version="1.0" encoding="utf-8"?>

<!-- License Agreement at http://iconmonstr.com/license/ -->

<!DOCTYPE svg PUBLIC "-//W3C//DTD SVG 1.1//EN" "http://www.w3.org/Graphics/SVG/1.1/DTD/svg11.dtd">
<svg version="1.1" xmlns="http://www.w3.org/2000/svg" xmlns:xlink="http://www.w3.org/1999/xlink" x="0px" y="0px"
	 width="512px" height="512px" viewBox="0 0 512 512" enable-background="new 0 0 512 512" xml:space="preserve">
<path id="beer-9-icon" d="M378.5,75.635c-32.652-33.565-212.271-33.645-245,0c-29.166,76.167-27.166,293.501,2.167,352.834
	c39.274,44.101,201.333,44.166,240.666,0C405.666,369.136,407.666,151.802,378.5,75.635z M171.001,403.803
	c-9.501-42.168-24.002-165.17-4.668-266.335c10.667,2.417,16,3.584,25.835,4.502c-13.501,96.498-11.835,182.831,5.833,271.833
	C180.667,411.468,171.001,403.803,171.001,403.803z M257.25,106.922c-49.838,0-90.239-6.062-90.239-13.537
	s40.401-13.537,90.239-13.537s90.24,6.062,90.24,13.537S307.088,106.922,257.25,106.922z"/>
</svg>
